<?xml version="1.0" standalone="no"?>
<!DOCTYPE svg PUBLIC "-//W3C//DTD SVG 20010904//EN"
 "http://www.w3.org/TR/2001/REC-SVG-20010904/DTD/svg10.dtd">
<svg version="1.0" xmlns="http://www.w3.org/2000/svg"
 width="568.000000pt" height="320.000000pt" viewBox="0 0 568.000000 320.000000"
 preserveAspectRatio="xMidYMid meet">

<g transform="translate(0.000000,320.000000) scale(0.100000,-0.100000)"
fill="#000000" stroke="none">
<path d="M0 1600 l0 -1600 274 0 275 0 5 598 c2 328 5 608 5 621 1 24 54 84
65 74 3 -3 -5 -23 -17 -45 -16 -30 -19 -42 -10 -45 9 -3 10 -10 3 -24 -8 -14
-7 -17 3 -13 8 3 17 -3 21 -13 6 -15 8 -15 16 -3 14 22 12 30 -5 24 -15 -6
-22 20 -8 29 5 2 2 2 -4 1 -18 -5 -16 22 3 40 9 9 20 29 24 44 6 19 9 -3 9
-70 1 -72 -2 -98 -11 -99 -7 0 -24 -14 -38 -32 -19 -24 -21 -29 -7 -24 11 4
17 2 17 -9 0 -10 6 -13 17 -10 17 5 18 -10 16 -242 l-1 -247 13 195 c7 107 14
267 14 355 1 234 13 475 23 475 4 0 6 -21 3 -46 -5 -34 -3 -44 6 -38 8 5 10
-2 7 -25 -3 -23 -1 -31 8 -27 16 6 8 -21 -14 -46 -13 -16 -13 -18 -1 -18 12 0
15 -13 13 -62 -2 -35 -5 -114 -7 -176 -2 -62 0 -115 4 -118 5 -3 9 1 10 8 1
23 20 -46 20 -75 0 -21 4 -27 15 -23 8 3 14 1 14 -5 0 -5 -7 -12 -15 -15 -11
-5 -13 -10 -5 -19 5 -6 7 -15 3 -19 -4 -4 0 -4 9 -1 18 7 29 28 34 64 2 13 8
29 13 34 6 6 11 25 12 41 0 17 3 25 6 19 6 -17 24 -17 22 0 -2 12 2 25 22 75
5 13 7 27 4 32 -3 4 2 10 10 14 8 3 15 16 15 29 0 26 26 55 37 43 4 -4 2 -16
-5 -26 -13 -22 -6 -25 31 -11 23 9 23 8 13 -24 -9 -29 -12 -31 -23 -16 -10 13
-14 14 -22 2 -5 -7 -14 -10 -20 -7 -6 4 -11 3 -11 -3 0 -5 6 -11 13 -14 9 -3
9 -8 1 -18 -6 -8 -7 -27 -3 -44 5 -25 7 -26 8 -7 0 13 8 31 17 39 13 13 13 17
2 24 -9 6 -9 9 -1 9 6 0 15 -5 19 -12 10 -16 6 -78 -6 -93 -8 -9 -8 -24 -1
-47 7 -27 9 -29 10 -9 1 22 42 71 60 71 12 0 25 31 22 53 -3 19 15 23 22 5 2
-8 8 -9 13 -4 5 5 4 11 -3 13 -7 3 -13 13 -13 24 0 21 -16 26 -23 7 -3 -8 -6
-8 -6 -2 -1 6 10 23 23 39 21 24 42 91 37 121 0 6 10 17 24 24 14 7 25 17 25
22 0 4 5 8 11 8 8 0 7 -5 -2 -16 -11 -14 -11 -18 4 -29 9 -7 17 -20 17 -29 0
-21 26 -21 35 1 4 10 9 34 10 53 2 40 13 70 26 70 5 0 9 -9 9 -20 0 -11 -4
-20 -10 -20 -5 0 -10 -13 -10 -30 0 -51 17 -33 25 25 7 56 18 75 31 54 4 -7 3
-9 -3 -6 -16 10 -10 -38 6 -54 13 -11 14 -11 8 4 -3 9 0 28 7 41 13 26 10 86
-5 86 -4 0 -6 -9 -4 -20 5 -28 -15 -37 -22 -10 -6 22 -7 22 -21 4 -13 -18 -14
-17 -7 6 4 14 11 27 15 30 4 3 10 15 14 27 6 18 4 21 -16 17 l-23 -5 23 10
c12 6 22 15 22 20 0 17 -74 10 -95 -9 -11 -10 -34 -21 -52 -25 -29 -6 -31 -5
-26 17 5 22 5 22 -9 4 -8 -10 -20 -17 -26 -15 -6 3 -4 12 7 25 15 19 31 21
184 28 111 4 167 3 167 -4 0 -5 -11 -10 -25 -10 -18 0 -25 -5 -25 -19 0 -24
-16 -36 -23 -19 -3 8 -9 3 -15 -12 -8 -20 -6 -29 10 -44 11 -11 18 -26 15 -37
-3 -11 -1 -19 4 -19 5 0 9 -11 9 -24 0 -38 18 -76 36 -76 13 0 14 -3 4 -15 -8
-9 -9 -15 -2 -15 6 0 14 5 18 12 10 16 25 -27 17 -49 -5 -12 -2 -15 10 -10 25
9 10 -17 -16 -28 -22 -10 -36 -65 -16 -65 6 0 9 10 7 23 -2 13 2 21 9 20 19
-4 76 75 68 95 -6 16 -7 16 -21 -2 -15 -22 -30 -16 -21 9 4 8 16 15 27 15 22
0 27 15 8 23 -9 4 -10 8 -2 14 6 4 14 15 18 23 3 8 4 4 2 -8 -5 -28 2 -52 16
-52 6 0 8 9 5 21 -4 13 0 22 11 26 9 4 20 11 23 16 4 5 9 5 13 -1 3 -6 -5 -23
-19 -39 -43 -49 -45 -52 -36 -57 25 -16 83 86 66 114 -3 6 -1 10 4 10 6 0 11
-7 11 -16 0 -14 3 -14 15 -4 12 10 15 10 15 -3 0 -8 7 -18 16 -21 13 -5 14 -4
6 7 -9 10 -8 18 3 33 13 18 14 18 8 -3 -3 -13 -1 -23 5 -23 26 0 41 77 17 86
-28 11 -15 23 20 19 19 -2 35 1 35 6 0 5 11 7 24 3 18 -4 28 0 39 17 15 21 16
20 15 -30 -1 -47 -3 -50 -18 -36 -23 21 -30 19 -30 -10 0 -14 -4 -25 -10 -25
-5 0 -10 -9 -10 -20 0 -11 4 -20 9 -20 16 0 0 -39 -18 -43 -11 -2 -3 -10 24
-23 22 -10 51 -32 65 -47 l26 -28 -4 41 c-4 36 -2 40 19 41 16 1 18 3 7 6 -20
5 -33 33 -15 33 7 0 18 -9 24 -20 11 -16 10 -21 -7 -30 -28 -15 -25 -33 5 -28
14 3 25 1 25 -4 0 -5 5 -6 10 -3 6 3 10 -1 10 -10 0 -9 5 -13 10 -10 6 4 7 11
4 17 -4 6 1 8 13 4 13 -4 28 3 48 24 16 16 33 30 38 30 17 0 -37 -51 -75 -70
-20 -11 -42 -28 -47 -37 -6 -10 -11 -13 -11 -8 0 6 -10 11 -21 12 -18 2 -14
-4 17 -31 93 -80 272 -224 294 -238 33 -20 98 -30 106 -16 4 7 2 8 -4 4 -6 -4
-28 9 -49 27 -21 19 -47 39 -58 45 -20 11 -20 11 2 12 12 0 23 -3 25 -8 2 -4
28 -25 58 -47 30 -22 62 -47 70 -55 8 -9 24 -22 35 -28 11 -6 15 -12 9 -12 -5
0 -26 11 -44 25 -19 14 -36 21 -38 16 -6 -17 36 -101 50 -101 24 0 93 -42 138
-84 25 -23 58 -48 73 -56 24 -12 30 -12 44 2 13 14 13 19 2 36 -30 42 -183
173 -319 271 -79 58 -152 113 -162 123 -22 22 -24 64 -2 72 8 3 13 2 10 -3 -8
-12 50 -35 65 -26 6 4 15 2 19 -5 5 -8 10 -9 14 -2 3 6 -9 20 -28 31 -48 30
-56 43 -77 119 -18 64 -18 68 -1 82 22 18 38 52 41 85 2 23 20 18 26 -7 12
-53 13 -131 3 -156 -22 -54 -18 -76 21 -102 20 -14 39 -26 43 -28 8 -4 5 19
-5 35 -13 20 -17 107 -5 120 6 7 7 13 2 13 -10 0 -12 196 -2 206 4 3 28 -12
54 -35 54 -47 124 -72 213 -74 48 -2 64 2 83 19 12 12 36 30 52 40 l29 19 -6
-35 c-4 -19 -20 -53 -36 -75 -42 -60 -48 -73 -29 -57 11 9 18 10 23 2 3 -5 1
-10 -6 -10 -7 0 -9 -3 -6 -6 4 -4 -3 -15 -15 -25 -11 -11 -17 -19 -13 -19 4 0
0 -10 -11 -22 -19 -23 -19 -23 2 -6 11 10 25 18 31 18 6 0 18 10 27 23 l17 22
-4 -22 c-3 -12 0 -24 7 -26 8 -3 8 -8 -1 -18 -11 -11 -13 -11 -13 2 0 7 -10
-1 -22 -19 -15 -25 -23 -30 -29 -20 -6 10 -13 8 -31 -11 -18 -18 -19 -22 -6
-18 10 3 20 1 24 -5 5 -7 -3 -9 -25 -6 -17 2 -29 3 -27 0 2 -2 -5 -13 -16 -24
-11 -11 -17 -23 -13 -26 3 -4 10 0 15 8 5 8 12 11 16 7 4 -4 13 -2 21 4 7 6
14 9 14 5 1 -3 3 -10 4 -16 1 -5 3 -13 4 -17 2 -11 41 39 41 54 0 7 4 13 10
13 5 0 9 3 7 8 -1 4 3 7 8 8 6 0 8 -9 7 -20 -3 -17 -1 -19 9 -8 16 15 29 16
29 1 0 -5 -4 -8 -9 -5 -5 4 -7 -3 -4 -14 3 -11 -4 -51 -15 -88 -25 -83 -34
-132 -23 -132 4 0 15 38 24 85 27 132 87 278 87 209 0 -14 3 -14 15 -4 9 7 18
10 22 6 3 -3 0 -6 -8 -6 -10 0 -11 -2 -2 -8 7 -4 14 -27 15 -50 2 -25 8 -42
16 -42 6 0 12 -4 12 -10 0 -5 5 -10 10 -10 6 0 10 9 10 20 0 11 5 20 10 20 6
0 10 5 10 11 0 34 42 149 55 149 7 0 16 8 18 18 3 9 5 -26 5 -78 0 -52 8 -144
16 -204 9 -60 16 -113 16 -118 0 -4 5 -8 10 -8 11 0 9 34 -10 145 -5 33 -10
109 -10 169 0 91 4 117 21 153 11 24 25 43 30 43 12 0 12 2 -13 -66 -16 -42
-22 -80 -22 -134 1 -80 33 -300 44 -300 16 0 18 15 6 45 -8 18 -20 83 -27 144
-16 142 -2 234 45 298 17 23 38 42 47 43 8 0 21 6 28 13 6 6 16 13 22 13 5 1
10 2 12 4 3 3 47 9 84 11 18 1 30 6 27 11 -7 11 44 -9 83 -33 18 -11 42 -32
53 -46 l20 -26 38 43 c20 24 89 98 153 164 148 156 181 195 173 208 -4 6 -13
-1 -22 -18 -13 -24 -122 -144 -211 -231 -31 -30 -46 -29 -46 2 0 14 3 25 7 25
5 0 7 6 5 13 -1 6 4 11 10 10 7 -2 12 1 10 5 -3 12 91 139 109 146 7 3 14 11
14 18 -1 7 -27 -15 -58 -48 -60 -64 -112 -104 -112 -85 0 6 -14 3 -32 -8 -18
-10 -42 -16 -53 -15 -43 6 -69 14 -76 25 -5 8 -8 8 -13 0 -11 -17 -30 -13 -61
13 -17 15 -23 26 -16 30 8 5 8 13 1 27 -10 18 -7 19 45 19 30 0 55 4 55 9 0 5
9 13 20 16 11 3 20 11 20 17 0 6 -6 6 -15 -2 -13 -11 -14 -10 -9 4 4 10 1 16
-9 16 -8 0 -18 -6 -20 -12 -4 -10 -6 -10 -6 0 -1 6 -10 12 -22 12 -13 0 -18 4
-13 12 4 7 3 8 -5 4 -6 -4 -18 -1 -26 8 -19 19 -19 26 1 26 22 0 12 24 -12 29
-20 3 -34 18 -34 37 0 9 140 10 248 2 20 -2 14 -13 -18 -31 -29 -18 -40 -37
-20 -37 6 0 10 5 10 10 0 6 5 10 12 10 6 0 22 10 35 22 17 15 34 21 58 20 41
-3 42 1 15 28 -12 12 -18 25 -14 31 4 8 10 7 17 0 13 -13 27 -14 27 -2 0 5
-14 14 -31 21 -32 14 -48 4 -49 -27 0 -17 -40 -26 -90 -21 -22 2 -40 1 -40 -2
0 -9 -94 1 -105 12 -7 6 0 9 20 8 44 -3 49 -1 36 14 -18 21 -3 44 37 54 31 8
34 10 18 17 -13 6 -29 3 -48 -8 -28 -16 -31 -16 -54 1 -33 23 -40 56 -21 100
9 20 19 65 22 100 6 53 5 62 -9 62 -10 0 -16 9 -16 24 0 25 -29 40 -90 49 -32
4 -70 28 -70 44 0 7 -3 13 -7 13 -5 0 -9 19 -9 43 -1 23 -2 50 -3 60 -1 9 -8
17 -18 17 -14 0 -14 2 2 20 18 19 17 20 -1 20 -15 0 -8 13 36 60 51 55 59 60
98 60 23 0 59 -7 81 -16 31 -12 47 -13 78 -5 59 17 80 14 88 -11 7 -22 8 -21
14 7 l7 30 17 -39 c9 -21 17 -49 17 -63 0 -26 -37 -142 -50 -158 -5 -6 -25
-43 -46 -82 -39 -77 -40 -110 -2 -100 16 4 18 3 9 -6 -16 -16 -14 -27 4 -21 8
4 15 1 15 -6 0 -10 20 -12 85 -7 127 9 136 25 27 48 -30 6 -52 12 -50 14 8 8
66 17 111 17 26 0 47 2 47 3 0 2 -17 12 -38 22 -31 17 -49 19 -119 14 -75 -6
-80 -5 -72 11 5 10 23 25 39 33 47 24 63 67 68 179 5 102 18 140 41 113 29
-36 38 -198 15 -277 -7 -23 -6 -24 10 -11 25 21 39 51 43 91 1 19 7 58 12 85
9 45 10 40 8 -50 -2 -84 1 -100 14 -103 12 -2 15 4 11 29 -3 21 -1 30 6 25 6
-3 13 3 17 14 4 11 10 18 15 15 11 -7 23 32 14 46 -4 8 -3 9 4 5 7 -4 12 -15
12 -24 0 -10 13 -26 30 -35 16 -10 29 -23 27 -30 -1 -7 4 -11 11 -9 8 1 11 -2
7 -8 -3 -5 2 -10 12 -11 12 0 9 -4 -10 -11 -15 -5 -25 -14 -22 -19 7 -10 -24
0 -43 14 -18 14 -25 2 -13 -21 6 -11 8 -28 5 -36 -3 -9 2 -28 12 -44 15 -24
15 -25 1 -13 -15 12 -17 11 -17 -11 0 -34 48 -87 61 -67 7 11 9 9 9 -8 0 -15
5 -21 14 -17 9 3 12 12 9 21 -7 19 23 44 43 36 9 -3 12 -14 9 -32 l-5 -26 10
25 c6 14 10 39 8 56 -3 21 0 30 8 27 7 -2 14 10 18 31 10 50 10 272 0 287 -4
7 -9 29 -11 49 -2 19 -8 36 -13 38 -6 2 -6 11 0 23 7 13 7 19 0 19 -5 0 -10 7
-10 16 0 8 -4 12 -10 9 -6 -3 -10 -1 -10 4 0 6 -6 11 -12 11 -7 0 -31 18 -53
40 -22 21 -44 39 -50 40 -5 0 -26 14 -45 31 -19 16 -56 41 -82 55 -27 13 -47
29 -45 35 1 7 -4 14 -12 17 -8 3 -11 0 -7 -7 5 -8 -19 -9 -91 -5 -88 6 -103 4
-139 -14 -25 -13 -50 -19 -64 -15 -12 3 -25 1 -29 -6 -4 -6 -22 -13 -39 -15
-17 -3 -37 -8 -43 -12 -7 -4 -9 -3 -5 4 3 6 2 13 -4 17 -5 3 -10 2 -10 -3 0
-13 -86 -43 -95 -34 -4 4 -5 2 -3 -3 1 -6 -9 -26 -24 -46 -55 -71 -71 -158
-43 -226 17 -40 19 -55 5 -33 -8 12 -10 10 -10 -8 0 -15 -4 -21 -12 -16 -8 5
-9 2 -5 -10 4 -10 3 -15 -3 -11 -6 3 -10 18 -10 32 0 22 -3 24 -25 19 -15 -4
-25 -2 -25 4 0 6 3 9 8 6 12 -7 37 18 37 39 0 22 -8 29 -43 40 -22 7 -24 5
-22 -32 5 -74 3 -78 -25 -59 -13 9 -32 16 -42 16 -14 0 -15 2 -4 9 9 6 10 11
2 15 -6 4 -15 4 -21 1 -5 -3 -10 3 -10 15 0 12 -5 18 -10 15 -6 -4 -8 -10 -5
-15 7 -11 -30 -19 -46 -9 -11 6 -11 11 -1 21 16 16 15 25 -3 25 -8 0 -12 -4
-9 -9 7 -11 6 -11 -56 12 -30 11 -55 20 -56 20 -1 0 -4 9 -7 20 -3 12 -11 18
-19 15 -27 -10 -78 -12 -78 -2 0 6 -4 6 -13 0 -6 -6 -52 -10 -100 -10 -49 0
-83 3 -77 7 9 6 7 10 -8 14 -18 6 -19 11 -11 48 16 70 17 98 4 98 -16 0 -25
22 -25 59 0 15 -6 33 -12 39 -9 9 -10 15 -2 20 21 14 23 52 3 62 -10 6 -19 20
-19 30 0 11 -4 20 -10 20 -5 0 -10 -9 -10 -21 0 -15 -5 -19 -15 -15 -9 3 -15
0 -15 -9 0 -18 5 -18 31 -5 15 8 19 7 19 -4 0 -8 -13 -17 -30 -21 -30 -7 -40
-28 -19 -41 8 -4 7 -9 -2 -16 -10 -7 -11 -11 -2 -14 7 -3 9 -12 6 -20 -3 -7
-9 -11 -14 -8 -14 8 -10 -15 7 -41 9 -13 14 -30 11 -37 -2 -7 0 -21 5 -32 8
-14 12 -16 18 -6 5 8 8 3 7 -14 -1 -15 -9 -29 -19 -32 -15 -4 -15 -8 -5 -25
10 -16 9 -21 -2 -28 -8 -5 -10 -14 -5 -22 14 -23 12 -50 -3 -45 -7 3 -12 2
-10 -2 7 -24 -68 -80 -98 -73 -5 2 -7 -1 -3 -5 13 -13 -12 -32 -34 -26 -16 4
-20 2 -16 -10 4 -8 -2 -20 -13 -27 -11 -6 -17 -15 -15 -20 3 -5 -18 -8 -47 -7
-44 1 -52 4 -54 21 -2 11 0 14 3 8 3 -7 13 -13 22 -13 13 0 11 4 -6 16 -12 8
-22 22 -22 30 0 8 -4 14 -8 14 -11 0 -48 -41 -55 -60 -3 -8 -6 -3 -6 12 -1 29
27 71 41 62 4 -3 8 0 8 5 0 6 -4 11 -9 11 -5 0 -7 9 -4 20 3 11 0 20 -6 20 -6
0 -11 -7 -11 -15 0 -8 -4 -15 -10 -15 -5 0 -7 14 -3 33 7 37 13 48 13 24 0
-10 7 -17 15 -17 8 0 15 -4 15 -10 0 -5 7 -10 15 -10 8 0 15 5 15 11 0 5 5 7
10 4 6 -4 10 9 10 31 0 31 -2 35 -15 24 -12 -10 -15 -10 -15 2 0 8 11 21 25
28 27 14 35 43 10 34 -11 -5 -14 -2 -8 12 3 11 11 23 17 27 7 6 4 7 -6 3 -18
-5 -34 9 -20 18 5 3 8 15 7 28 -1 16 -7 22 -20 20 -13 -3 -16 1 -12 12 4 9 2
16 -3 16 -16 0 -22 -20 -10 -34 8 -11 8 -15 -1 -18 -14 -5 -4 -41 16 -61 8 -9
10 -19 4 -28 -6 -11 -12 -6 -21 19 -7 17 -15 32 -18 32 -10 0 -32 -69 -26 -79
8 -12 -4 -42 -13 -36 -4 2 -6 22 -4 44 3 43 -6 51 -27 26 -11 -13 -10 -14 1
-10 11 4 13 -5 11 -45 -2 -27 1 -63 6 -79 7 -20 7 -32 -1 -40 -8 -8 -6 -11 7
-11 12 0 16 -5 12 -16 -3 -9 -6 -18 -6 -21 0 -3 -8 1 -17 8 -15 13 -16 12 -11
-9 4 -12 2 -20 -2 -17 -11 7 -40 -5 -40 -15 0 -5 10 -6 22 -2 15 4 19 2 13 -7
-4 -7 -17 -10 -30 -7 -13 3 -26 3 -29 -2 -2 -4 -23 -6 -45 -4 -31 3 -41 8 -41
22 0 22 26 34 34 15 10 -27 55 -2 56 31 0 5 -7 19 -15 30 -15 18 -15 18 -8 0
5 -16 3 -18 -15 -14 -12 4 -20 2 -17 -3 7 -11 -39 -23 -65 -16 -11 3 -20 1
-20 -5 0 -5 -4 -7 -8 -4 -5 3 -8 19 -7 36 1 16 -2 30 -7 30 -4 0 -8 7 -8 15 0
8 4 15 9 15 5 0 12 15 16 33 4 17 9 41 11 52 4 15 3 16 -4 6 -15 -22 -29 -5
-24 29 4 26 1 31 -14 28 -16 -2 -18 2 -15 27 4 39 10 48 27 41 8 -3 11 0 7 10
-3 8 -12 13 -20 10 -8 -3 -17 -6 -19 -6 -3 0 -2 -4 1 -10 3 -5 1 -10 -5 -10
-6 0 -13 7 -17 15 -5 14 -7 14 -18 -2 -7 -10 -15 -29 -19 -43 -5 -22 -4 -22 7
3 l14 29 16 -25 c14 -22 14 -27 2 -37 -11 -9 -15 -9 -15 -1 0 7 -9 5 -26 -5
-24 -16 -26 -16 -46 3 -16 17 -18 24 -9 42 9 17 9 20 -3 15 -23 -9 -28 -35 -9
-51 17 -13 16 -14 -5 -10 -21 5 -23 3 -17 -24 4 -18 3 -29 -4 -29 -6 0 -13
-11 -17 -25 -3 -14 -12 -25 -20 -25 -8 0 -14 -5 -14 -11 0 -6 7 -9 15 -5 16 6
40 -28 30 -44 -3 -5 7 -10 22 -12 18 -2 29 -10 31 -22 2 -10 0 -16 -6 -12 -11
7 -42 -19 -42 -36 0 -5 7 -8 15 -4 8 3 15 1 15 -4 0 -6 -9 -10 -19 -10 -11 0
-23 -5 -26 -11 -5 -7 -16 -2 -31 12 l-24 22 -24 -22 -24 -22 -16 22 c-13 20
-16 20 -22 6 -12 -31 -41 -20 -48 18 -9 47 0 72 24 70 27 -2 36 -13 16 -21
-19 -7 -23 -58 -3 -52 6 3 13 14 15 26 2 16 10 22 27 22 18 0 27 8 36 35 7 19
17 35 21 35 4 0 8 7 8 15 0 8 -5 15 -11 15 -6 0 -9 7 -6 15 4 8 1 17 -4 21 -6
3 -9 15 -6 25 6 23 -11 25 -20 3 -3 -9 2 -30 12 -47 13 -22 15 -32 7 -35 -7
-2 -12 -13 -12 -24 0 -17 -2 -18 -15 -8 -10 8 -13 21 -9 33 4 13 2 17 -5 13
-10 -6 -15 23 -14 72 1 6 -3 12 -8 12 -5 0 -9 -11 -9 -24 0 -13 -7 -29 -15
-36 -8 -6 -14 -15 -13 -18 3 -24 -4 -42 -13 -37 -6 4 -13 -3 -16 -14 -4 -15
-11 -20 -23 -16 -13 4 -21 -1 -26 -17 -7 -22 -8 -22 -17 7 -14 45 -14 125 -1
136 9 7 14 4 19 -10 8 -28 29 -27 22 0 -3 12 -2 31 3 44 8 22 8 22 -21 8 -29
-14 -49 -11 -49 9 0 5 7 7 16 4 13 -5 14 -1 9 23 -4 21 -2 30 9 34 23 9 20 30
-3 22 -20 -6 -38 20 -21 30 6 4 10 1 10 -4 0 -6 7 -11 16 -11 15 0 15 2 0 25
-10 16 -15 35 -11 48 5 16 4 18 -4 8 -8 -12 -12 -12 -25 -2 -13 11 -16 9 -21
-12 -4 -14 -2 -41 3 -61 13 -45 5 -51 -64 -51 -48 0 -51 2 -49 22 1 13 -4 31
-11 40 -7 10 -14 26 -14 35 0 14 -6 16 -30 12 -20 -4 -30 -2 -30 5 0 8 -12 4
-29 -9 -18 -12 -32 -16 -36 -10 -10 16 -20 12 -37 -18 -18 -29 -83 -58 -94
-41 -3 5 0 9 7 9 7 0 9 10 5 30 -5 25 -2 30 15 30 16 0 19 5 15 28 -2 15 -5
33 -5 40 -1 7 -6 10 -12 6 -6 -3 -8 -17 -5 -29 7 -29 -10 -43 -19 -15 -7 23
-25 27 -25 6 0 -16 -26 -46 -41 -46 -5 0 -9 8 -9 19 0 10 -9 30 -20 44 -14 18
-17 28 -9 33 8 5 7 10 -5 16 -11 6 -16 23 -16 58 l0 50 -275 0 -275 0 0 -1600z
m658 1356 c-6 -7 -20 -13 -31 -13 -18 -2 -18 -1 -2 17 9 10 23 16 30 13 11 -3
11 -8 3 -17z m2920 7 c-10 -2 -28 -2 -40 0 -13 2 -5 4 17 4 22 1 32 -1 23 -4z
m59 -9 c-3 -3 -12 -4 -19 -1 -8 3 -5 6 6 6 11 1 17 -2 13 -5z m-2997 -33 c0
-5 -7 -11 -15 -15 -15 -5 -20 5 -8 17 9 10 23 9 23 -2z m335 -60 c-3 -6 -11
-8 -17 -5 -6 4 -5 9 3 15 16 10 23 4 14 -10z m549 -88 c-4 -16 -11 -29 -16
-31 -4 -2 -8 -11 -8 -20 0 -12 -3 -13 -11 -5 -7 7 -8 19 -4 30 5 10 9 20 9 23
3 13 18 30 27 30 5 0 6 -12 3 -27z m-105 -63 c-6 -16 -13 -30 -15 -30 -2 0 -4
14 -4 30 0 20 5 30 14 30 12 0 13 -6 5 -30z m-186 -35 c-3 -9 -8 -14 -10 -11
-3 3 -2 9 2 15 9 16 15 13 8 -4z m271 -3 c-14 -9 -24 -38 -17 -46 4 -3 11 -2
17 3 6 5 22 12 35 16 l24 7 -21 -22 c-12 -13 -19 -27 -16 -32 3 -4 -2 -15 -10
-24 -15 -14 -17 -14 -22 3 -3 10 -11 29 -17 43 -16 31 -11 58 11 63 21 4 30
-2 16 -11z m1456 -18 c0 -8 -5 -12 -10 -9 -6 4 -8 11 -5 16 9 14 15 11 15 -7z
m699 -27 c1 -5 -3 -5 -9 -2 -5 3 -10 16 -9 28 0 21 1 21 9 2 5 -11 9 -24 9
-28z m-2488 -60 c-13 -13 -15 11 -4 40 7 16 8 15 11 -6 2 -13 -1 -28 -7 -34z
m399 33 c0 -5 -5 -10 -11 -10 -5 0 -7 5 -4 10 3 6 8 10 11 10 2 0 4 -4 4 -10z
m1400 0 c0 -5 -5 -10 -11 -10 -5 0 -7 5 -4 10 3 6 8 10 11 10 2 0 4 -4 4 -10z
m-1494 -27 c-10 -10 -19 5 -10 18 6 11 8 11 12 0 2 -7 1 -15 -2 -18z m716 -20
c-16 -21 -40 -47 -53 -58 l-23 -20 20 25 c51 68 79 99 82 95 3 -2 -9 -21 -26
-42z m-122 -13 c0 -5 -4 -10 -10 -10 -5 0 -10 5 -10 10 0 6 5 10 10 10 6 0 10
-4 10 -10z m-460 -12 c0 -4 -9 -8 -21 -8 -11 0 -18 4 -15 8 3 5 12 9 21 9 8 0
15 -4 15 -9z m-341 -32 c-7 -8 -118 -10 -126 -3 -3 4 24 7 62 7 38 0 66 -2 64
-4z m104 -3 c-18 -2 -48 -2 -65 0 -18 2 -4 4 32 4 36 0 50 -2 33 -4z m367 -29
c0 -25 -7 -42 -22 -56 -13 -11 -17 -17 -10 -13 7 4 12 0 12 -9 0 -21 10 -20
25 1 7 9 22 18 35 20 20 3 21 1 10 -12 -10 -12 -10 -19 -2 -27 17 -17 15 -38
-3 -32 -8 4 -15 12 -15 20 0 10 -11 7 -40 -12 -22 -15 -40 -27 -40 -28 0 -1 4
-15 9 -33 8 -27 5 -35 -21 -62 -22 -23 -26 -31 -14 -31 23 0 20 -13 -6 -29
-22 -14 -22 -14 -3 -21 14 -5 24 -1 34 12 7 11 19 17 27 14 8 -3 14 1 14 9 0
8 -6 15 -12 15 -9 0 -8 3 2 10 9 5 15 27 16 57 1 26 3 53 3 60 1 6 10 9 22 6
17 -5 19 -11 13 -37 -4 -23 -3 -28 5 -20 7 6 13 21 14 33 2 27 17 28 17 0 0
-12 4 -17 11 -13 6 3 8 15 6 26 -4 15 -2 17 7 9 10 -8 20 -6 40 10 14 11 26
17 26 14 0 -14 -44 -85 -52 -85 -5 0 -7 -4 -4 -9 3 -5 -1 -14 -9 -21 -11 -9
-15 -9 -15 -1 0 7 -4 10 -9 7 -10 -7 -3 -101 10 -137 13 -34 -14 -88 -43 -89
-12 0 -9 35 4 48 15 15 6 15 -26 0 -21 -9 -27 -21 -32 -60 -4 -28 -12 -52 -19
-55 -7 -2 -13 -21 -13 -41 0 -23 -6 -40 -18 -49 -23 -17 -29 -93 -7 -93 10 0
13 -6 9 -16 -3 -9 -6 -20 -6 -25 0 -5 -7 -9 -16 -9 -8 0 -12 -5 -9 -10 4 -6
11 -8 16 -5 5 4 9 -1 9 -9 0 -9 5 -16 11 -16 5 0 9 8 8 18 -3 32 1 42 17 42
12 0 14 7 9 29 -5 24 -2 32 14 41 28 14 28 -2 1 -58 -11 -22 -20 -47 -20 -55
0 -8 -10 -22 -22 -31 -13 -9 -17 -14 -10 -11 6 3 12 4 12 1 0 -2 3 -11 6 -19
3 -10 -3 -16 -20 -19 -34 -7 -54 6 -38 25 7 7 9 17 5 20 -3 4 -1 7 5 7 7 0 12
5 12 11 0 20 -27 -10 -34 -36 -5 -21 -13 -25 -41 -25 -25 0 -35 4 -35 16 0 10
6 14 15 10 8 -3 15 -1 15 3 0 5 -7 11 -15 15 -8 3 -15 11 -15 17 0 7 -7 17
-16 23 -15 11 -14 15 3 44 11 18 23 30 26 27 4 -3 2 1 -4 8 -8 9 -13 8 -25 -7
-18 -26 -18 -13 1 23 12 25 12 31 1 40 -11 9 -15 9 -19 -1 -3 -7 -4 8 -2 34 1
27 10 54 19 64 9 9 14 19 11 22 -3 4 -10 1 -14 -6 -14 -23 -34 15 -37 69 -1
37 2 52 14 59 10 5 12 10 5 10 -7 0 -13 6 -13 14 0 8 6 17 13 19 9 4 9 8 -2
15 -9 6 -10 12 -3 16 6 4 8 14 5 23 -4 9 -2 14 3 11 5 -4 10 8 11 25 1 17 7
35 13 41 8 8 9 6 5 -6 -8 -20 10 -25 18 -5 4 9 8 8 17 -3 9 -12 10 -11 5 8 -4
13 -2 22 4 22 16 0 11 -91 -6 -97 -7 -3 -13 -10 -13 -16 0 -24 44 34 46 60 1
16 2 38 3 51 1 23 21 32 21 8 0 -7 10 -16 23 -19 21 -6 21 -5 4 8 -13 9 -17
20 -12 35 4 11 2 19 -3 18 -10 -3 -12 1 -12 22 0 6 11 16 25 22 22 10 24 16
22 59 -3 39 0 48 15 52 10 3 18 12 18 21 0 9 5 16 10 16 6 0 10 -16 10 -36z
m250 26 c0 -5 -7 -10 -16 -10 -8 0 -13 -4 -10 -9 3 -4 -3 -16 -14 -26 -11 -10
-17 -22 -14 -26 3 -5 0 -17 -5 -26 -8 -14 -10 -9 -8 22 1 22 6 43 12 47 5 4
11 12 11 18 3 19 4 20 24 20 11 0 20 -4 20 -10z m90 -4 c0 -2 -7 -7 -16 -10
-8 -3 -12 -2 -9 4 6 10 25 14 25 6z m162 -28 c-7 -7 -12 -8 -12 -2 0 6 3 14 7
17 3 4 9 5 12 2 2 -3 -1 -11 -7 -17z m-1102 -2 c0 -23 -25 -63 -37 -59 -19 7
6 73 28 73 5 0 9 -6 9 -14z m740 5 c0 -12 -20 -25 -27 -18 -7 7 6 27 18 27 5
0 9 -4 9 -9z m-257 -21 c-3 -11 2 -31 11 -45 16 -24 16 -25 -4 -25 -33 0 -35
1 -32 15 2 9 -5 12 -20 9 l-23 -5 23 12 c12 7 21 17 19 23 -4 11 13 35 25 36
3 0 4 -9 1 -20z m1133 -10 c51 -25 65 -38 89 -81 26 -49 28 -60 33 -208 5
-175 -9 -329 -39 -427 -24 -77 -99 -182 -148 -206 -19 -9 -37 -22 -41 -28 -15
-24 -64 -26 -147 -4 -78 20 -112 38 -139 74 -7 8 -21 26 -33 40 l-21 25 21
-37 c39 -71 0 -38 -55 45 -66 99 -80 156 -47 179 12 9 23 24 23 34 2 29 -13
98 -24 111 -15 18 20 111 41 109 8 0 30 22 48 49 18 28 40 55 49 62 10 7 11
13 5 18 -6 3 -11 21 -11 39 0 27 13 48 68 109 104 117 109 120 222 125 33 1
62 -6 106 -28z m-649 -12 c-3 -8 -6 -5 -6 6 -1 11 2 17 5 13 3 -3 4 -12 1 -19z
m-266 -11 c-10 -9 -11 -8 -5 6 3 10 9 15 12 12 3 -3 0 -11 -7 -18z m-171 -1
c0 -3 -4 -8 -10 -11 -5 -3 -10 -1 -10 4 0 6 5 11 10 11 6 0 10 -2 10 -4z m509
-12 c8 -7 -69 -34 -96 -33 -22 0 -24 2 -10 8 10 4 18 11 17 16 -3 20 68 27 89
9z m-1119 -3 c-1 -20 -58 -61 -82 -61 -7 0 2 8 20 16 17 9 32 24 32 34 0 9 7
17 15 17 8 0 15 -3 15 -6z m490 -16 c9 -11 6 -21 -11 -44 -27 -36 -39 -26 -39
31 0 31 3 35 20 31 10 -3 24 -11 30 -18z m-446 2 c17 -16 16 -47 -1 -47 -7 0
-13 7 -13 15 0 18 -12 19 -28 3 -9 -9 -12 -8 -12 5 0 9 7 17 15 17 8 0 15 5
15 10 0 14 9 13 24 -3z m53 -13 c-9 -9 -28 6 -21 18 4 6 10 6 17 -1 6 -6 8
-13 4 -17z m707 11 c-7 -16 -24 -21 -24 -6 0 8 7 13 27 20 1 1 0 -6 -3 -14z
m2066 -13 c-7 -3 -19 3 -28 13 -16 15 -15 16 12 4 15 -7 23 -15 16 -17z
m-2646 1 c7 -18 -17 -43 -41 -43 -17 0 -16 7 5 35 20 29 28 31 36 8z m136 -12
c0 -15 -46 -76 -57 -76 -6 0 -14 -3 -18 -7 -12 -12 -35 3 -35 23 0 10 9 23 20
29 24 13 27 2 3 -15 -10 -8 -12 -14 -5 -19 6 -3 26 12 44 34 32 38 48 49 48
31z m176 -53 c-6 -10 -14 -18 -18 -18 -12 0 -9 28 3 35 6 4 8 13 5 20 -2 7 -2
16 2 20 12 12 19 -39 8 -57z m34 52 c0 -5 -4 -10 -10 -10 -5 0 -10 5 -10 10 0
6 5 10 10 10 6 0 10 -4 10 -10z m384 -19 c-21 -16 -40 -28 -42 -26 -5 5 33 41
49 48 32 13 30 5 -7 -22z m976 -34 c0 -6 -9 -2 -20 8 -11 10 -20 23 -20 28 0
6 9 2 20 -8 11 -10 20 -23 20 -28z m-1500 -4 c0 -7 -4 -13 -10 -13 -5 0 -10
12 -10 28 0 21 2 24 10 12 5 -8 10 -21 10 -27z m-366 13 c-3 -8 -12 -12 -21
-9 -12 5 -12 7 -1 14 20 13 28 11 22 -5z m1176 -31 c-33 -35 -137 -88 -137
-69 0 8 8 14 16 14 9 0 43 18 76 40 70 46 76 48 45 15z m-270 6 c0 -8 -25 -20
-71 -34 -9 -3 -16 1 -16 8 0 7 6 11 14 8 7 -3 16 2 19 11 6 16 54 23 54 7z
m-633 -33 c-3 -8 -6 -5 -6 6 -1 11 2 17 5 13 3 -3 4 -12 1 -19z m-131 -14 c-1
-27 -11 -31 -20 -9 -3 8 -12 12 -21 9 -11 -4 -14 -2 -10 9 4 8 17 15 29 15 19
0 23 -6 22 -24z m177 -21 c-3 -7 -9 -13 -14 -13 -5 0 -9 -11 -9 -24 0 -35 -25
-52 -45 -32 -10 9 -13 21 -8 28 4 7 6 23 5 34 -3 18 2 21 22 19 21 -3 26 1 26
18 0 20 0 20 14 2 8 -11 12 -25 9 -32z m1803 32 c-3 -9 0 -15 9 -15 8 0 15 -8
15 -17 0 -16 2 -16 11 -3 9 12 10 12 5 -3 -3 -10 -6 -24 -6 -30 0 -7 -4 -6
-10 3 -9 13 -11 13 -20 0 -5 -8 -10 -29 -10 -45 0 -36 -16 -55 -45 -55 -12 0
-26 -5 -32 -11 -8 -8 -17 -8 -32 0 -21 12 -23 17 -25 84 -1 38 -1 38 32 32
l34 -6 -21 22 c-28 30 -20 38 34 31 37 -4 45 -2 45 12 0 9 5 16 11 16 6 0 9
-7 5 -15z m279 -13 c-2 -3 -12 -1 -22 2 -15 6 -15 9 -3 16 13 8 35 -8 25 -18z
m-2179 6 c5 -7 2 -9 -9 -5 -9 3 -18 1 -20 -6 -2 -7 -8 -9 -12 -5 -10 9 3 28
20 28 8 0 17 -5 21 -12z m-388 -30 c9 -9 8 -16 -4 -29 -9 -10 -11 -19 -6 -23
6 -3 8 -15 5 -26 -3 -12 1 -22 11 -26 9 -3 16 -12 16 -20 0 -19 -16 -18 -24 1
-14 37 -40 -3 -36 -57 1 -16 -3 -28 -9 -28 -6 0 -8 7 -4 16 5 14 3 15 -18 4
-20 -10 -22 -10 -11 1 6 7 12 20 11 29 0 10 -2 11 -6 3 -6 -16 -23 -17 -23 -3
0 6 16 20 35 31 19 12 35 27 35 35 0 22 -20 16 -29 -8 l-8 -22 -13 23 c-7 15
-8 21 -1 17 14 -9 15 16 1 30 -6 6 -1 19 16 37 27 29 44 33 62 15z m192 2
c-13 -8 -12 -10 3 -10 10 0 17 -6 15 -12 -3 -7 1 -24 9 -38 8 -15 9 -26 3 -28
-6 -2 -10 -14 -10 -27 0 -13 -5 -25 -11 -27 -8 -3 -8 -14 -1 -41 6 -22 7 -37
1 -37 -5 0 -9 -16 -9 -35 0 -19 5 -35 11 -35 5 0 7 -5 3 -11 -5 -8 -1 -8 14 0
17 9 19 8 15 -9 -3 -11 -12 -20 -19 -20 -8 0 -14 -4 -14 -9 0 -5 -9 -7 -19 -4
-16 4 -19 1 -14 -15 2 -11 1 -22 -4 -25 -13 -8 -13 55 0 71 6 8 11 22 12 32 1
15 -2 17 -17 9 -10 -5 -18 -7 -18 -4 0 19 -29 -26 -38 -60 l-12 -40 5 45 c3
26 13 51 23 60 10 9 18 28 18 45 -1 23 3 29 17 27 12 -2 17 4 17 20 0 19 -2
20 -10 8 -11 -16 -11 -15 -15 18 -1 12 2 22 7 22 5 0 8 19 7 43 -3 48 14 97
33 97 9 0 8 -3 -2 -10z m169 -20 c14 0 14 1 -9 -48 -12 -24 -18 -47 -15 -52 3
-6 0 -10 -9 -10 -8 0 -16 6 -18 12 -3 7 -7 3 -10 -8 -4 -17 -1 -20 23 -16 34
5 39 -12 9 -28 -11 -6 -20 -16 -20 -22 0 -7 5 -6 15 2 21 17 32 4 17 -20 -7
-12 -8 -20 -2 -20 23 0 8 -19 -20 -25 -16 -4 -30 -12 -30 -18 0 -7 -12 1 -26
17 -15 15 -23 31 -18 35 11 7 17 28 17 56 1 11 6 24 11 28 8 6 7 10 -2 14 -10
4 -10 7 2 17 17 13 30 66 15 66 -5 0 -9 5 -9 12 0 9 3 9 12 0 19 -19 28 -14
28 16 1 24 2 25 14 10 7 -10 18 -18 25 -18z m570 5 c-2 -2 -18 -5 -36 -8 -23
-4 -30 -2 -27 8 3 7 13 11 24 8 10 -3 21 1 26 8 6 10 9 10 12 0 2 -7 2 -14 1
-16z m434 10 c-3 -9 -8 -14 -10 -11 -3 3 -2 9 2 15 9 16 15 13 8 -4z m-1285
-25 c-11 -18 -28 -27 -28 -16 0 16 14 36 26 36 12 0 12 -4 2 -20z m921 -30
c-2 -55 -4 -59 -18 -31 -7 12 -7 28 2 50 6 17 13 31 14 31 1 0 2 -22 2 -50z
m-748 13 c13 -16 12 -17 -3 -4 -17 13 -22 21 -14 21 2 0 10 -8 17 -17z m-231
-9 c0 -8 -4 -12 -10 -9 -5 3 -10 10 -10 16 0 5 5 9 10 9 6 0 10 -7 10 -16z
m387 -41 c-1 -16 -8 -34 -14 -41 -7 -7 -13 -20 -13 -28 0 -8 -4 -14 -9 -14
-13 0 -7 50 6 58 6 4 13 17 17 30 10 30 14 28 13 -5z m938 8 c-3 -6 -11 -11
-16 -11 -5 0 -4 6 3 14 14 16 24 13 13 -3z m-865 -36 c-7 -8 -10 -22 -6 -30 3
-8 1 -15 -4 -15 -6 0 -10 -7 -10 -15 0 -8 -4 -15 -10 -15 -5 0 -10 -7 -10 -15
0 -8 4 -15 10 -15 10 0 7 -43 -5 -72 -8 -19 13 -47 31 -41 5 2 10 -12 11 -32
1 -32 -1 -35 -20 -30 -16 5 -18 4 -8 -3 18 -12 7 -78 -14 -86 -8 -3 -15 -12
-15 -21 0 -19 10 -19 24 1 13 18 43 10 43 -12 0 -10 -7 -12 -21 -8 -19 6 -19
6 -3 -10 18 -18 24 -52 8 -42 -5 4 -11 0 -14 -6 -3 -10 -7 -10 -20 1 -10 7
-17 9 -17 4 0 -15 -92 -16 -101 -1 -7 11 -9 11 -9 0 0 -7 -5 -10 -10 -7 -16
10 40 64 59 58 12 -4 13 -3 3 4 -10 8 -10 12 3 23 8 7 15 25 15 41 0 16 6 29
13 30 10 0 10 2 0 6 -23 9 -14 25 9 17 20 -6 21 -5 6 10 -16 15 -16 40 -1 91
5 19 4 18 -19 -3 -23 -21 -26 -21 -32 -6 -4 9 -4 19 -1 22 3 3 5 0 5 -6 0 -7
5 -12 10 -12 6 0 10 9 10 20 0 11 4 20 9 20 5 0 11 7 15 15 4 12 0 14 -19 9
-21 -5 -23 -3 -21 19 1 13 12 37 24 52 12 15 22 33 22 40 0 7 7 15 15 19 9 3
12 12 9 23 -4 13 -3 14 3 5 8 -10 13 -9 24 4 13 16 14 16 17 0 2 -9 -2 -23 -8
-31z m410 15 c0 -5 -5 -10 -11 -10 -5 0 -7 5 -4 10 3 6 8 10 11 10 2 0 4 -4 4
-10z m-1070 -10 c0 -5 -2 -10 -4 -10 -3 0 -8 5 -11 10 -3 6 -1 10 4 10 6 0 11
-4 11 -10z m-40 -20 c9 -16 8 -20 -5 -20 -9 0 -13 5 -9 11 3 6 0 15 -7 20 -10
6 -10 9 -2 9 7 0 17 -9 23 -20z m2290 -16 c0 -2 -9 0 -20 6 -11 6 -20 13 -20
16 0 2 9 0 20 -6 11 -6 20 -13 20 -16z m-1560 12 c0 -3 -4 -8 -10 -11 -5 -3
-10 -1 -10 4 0 6 5 11 10 11 6 0 10 -2 10 -4z m-860 -16 c0 -5 -2 -10 -4 -10
-3 0 -8 5 -11 10 -3 6 -1 10 4 10 6 0 11 -4 11 -10z m380 -16 c0 -8 -4 -12
-10 -9 -5 3 -10 10 -10 16 0 5 5 9 10 9 6 0 10 -7 10 -16z m77 -6 c-3 -8 -6
-5 -6 6 -1 11 2 17 5 13 3 -3 4 -12 1 -19z m-288 -14 c2 -2 -7 -4 -22 -4 -14
0 -29 5 -32 10 -6 10 42 4 54 -6z m19 -25 c-3 -37 -11 -44 -28 -24 -10 12 -9
16 4 21 9 3 16 12 16 20 0 8 2 14 5 14 3 0 4 -14 3 -31z m172 10 c0 -5 -4 -9
-10 -9 -5 0 -10 7 -10 16 0 8 5 12 10 9 6 -3 10 -10 10 -16z m777 -11 c-3 -7
-5 -2 -5 12 0 14 2 19 5 13 2 -7 2 -19 0 -25z m-1180 -10 c-3 -7 -5 -2 -5 12
0 14 2 19 5 13 2 -7 2 -19 0 -25z m899 -2 c2 -14 0 -26 -6 -26 -5 0 -10 14
-10 32 0 36 9 33 16 -6z m344 13 c0 -10 -23 -17 -37 -11 -7 2 -11 8 -8 12 6
10 45 9 45 -1z m90 -13 c-14 -13 -31 -21 -37 -19 -17 6 -7 22 21 33 37 15 41
11 16 -14z m-820 -7 c0 -6 -4 -7 -10 -4 -5 3 -10 11 -10 16 0 6 5 7 10 4 6 -3
10 -11 10 -16z m2250 6 c0 -1 -9 -5 -20 -8 -12 -3 -20 0 -20 8 0 8 8 11 20 8
11 -3 20 -7 20 -8z m-2107 -45 c4 -17 3 -19 -9 -9 -8 6 -14 18 -14 26 0 20 16
8 23 -17z m814 8 c-3 -8 -6 -5 -6 6 -1 11 2 17 5 13 3 -3 4 -12 1 -19z m73 12
c0 -5 -2 -10 -4 -10 -3 0 -8 5 -11 10 -3 6 -1 10 4 10 6 0 11 -4 11 -10z
m-1326 -48 c-4 -18 -10 -32 -15 -32 -12 0 -11 13 1 46 14 35 22 26 14 -14z
m531 -50 c-3 -3 -5 0 -5 6 0 7 -3 12 -7 12 -10 0 -34 -52 -28 -58 3 -3 5 -1 5
5 0 6 12 8 26 5 20 -3 26 0 31 17 6 23 22 29 19 7 -3 -19 -32 -46 -50 -46 -9
0 -16 -5 -16 -11 0 -5 -4 -7 -10 -4 -5 3 -10 -3 -10 -14 0 -31 -11 -51 -27
-51 -11 0 -14 7 -11 25 4 17 1 25 -8 25 -8 0 -14 5 -14 10 0 6 5 10 11 10 6 0
9 7 5 15 -3 8 1 21 10 27 36 30 53 52 48 60 -3 5 -15 1 -25 -8 -18 -16 -19
-16 -13 -1 3 9 10 17 15 17 5 0 9 7 9 16 0 10 10 1 25 -21 15 -20 24 -40 20
-43z m-605 0 c-9 -3 -9 -6 1 -13 9 -6 10 -9 2 -9 -19 0 -26 20 -12 37 10 12
14 12 18 2 2 -7 -2 -15 -9 -17z m210 -2 c-8 -5 -23 -10 -34 -10 -16 0 -15 2 5
19 16 13 27 16 34 10 6 -7 5 -13 -5 -19z m180 5 c0 -9 -6 -12 -15 -9 -8 4 -12
10 -9 15 8 14 24 10 24 -6z m955 -9 c-16 -13 -32 -22 -34 -20 -5 5 42 43 54
44 6 0 -3 -11 -20 -24z m165 0 c0 -3 -4 -8 -10 -11 -5 -3 -10 -1 -10 4 0 6 5
11 10 11 6 0 10 -2 10 -4z m-1560 -20 c0 -3 -4 -8 -10 -11 -5 -3 -10 -1 -10 4
0 6 5 11 10 11 6 0 10 -2 10 -4z m340 -2 c0 -8 -19 -13 -24 -6 -3 5 1 9 9 9 8
0 15 -2 15 -3z m864 -19 c-4 -8 -10 -15 -15 -15 -4 0 -6 7 -3 15 4 8 10 15 15
15 4 0 6 -7 3 -15z m-1236 -29 c25 -8 29 -24 7 -32 -8 -4 -15 -10 -15 -15 0
-5 7 -9 15 -9 8 0 15 3 15 8 0 4 16 8 35 9 19 1 35 -3 35 -8 0 -5 -7 -9 -15
-9 -8 0 -15 -8 -15 -17 0 -15 -1 -15 -13 1 -12 17 -14 17 -27 1 -8 -10 -13
-35 -13 -58 2 -30 -1 -37 -7 -27 -7 10 -10 11 -10 3 0 -19 -50 -16 -57 2 -11
30 -8 106 5 114 7 4 14 23 14 41 1 26 3 30 12 18 6 -8 21 -18 34 -22z m92 30
c0 -11 -19 -15 -25 -6 -3 5 1 10 9 10 9 0 16 -2 16 -4z m366 -23 c-10 -10 -19
5 -10 18 6 11 8 11 12 0 2 -7 1 -15 -2 -18z m94 1 c0 -8 5 -14 11 -14 7 0 5
-10 -5 -25 -20 -30 -20 -35 -1 -35 9 0 15 10 16 23 0 14 3 17 6 7 9 -21 30
-40 37 -33 3 4 6 -8 6 -25 0 -18 -4 -33 -10 -33 -5 -1 -19 -2 -31 -3 -11 0
-26 -9 -33 -18 -22 -31 -106 -19 -106 14 0 4 8 8 17 8 13 0 14 3 5 12 -18 18
-15 25 13 32 17 4 25 12 23 24 -2 9 2 17 7 18 31 3 44 17 35 34 -13 24 -13 43
0 35 6 -3 10 -13 10 -21z m-32 -11 c-2 -9 -9 -18 -16 -19 -7 -1 -8 0 -3 2 6 3
7 12 4 20 -3 8 0 14 7 14 6 0 10 -8 8 -17z m-418 -8 c-7 -9 -15 -13 -17 -11
-7 7 7 26 19 26 6 0 6 -6 -2 -15z m375 -20 c-2 -29 -15 -47 -15 -20 0 14 -3
15 -15 5 -23 -19 -18 -3 7 20 12 11 22 20 23 20 0 0 0 -11 0 -25z m730 -5
c-16 -16 -36 -30 -44 -29 -11 0 -10 3 4 8 11 5 29 18 39 30 11 11 21 21 24 21
3 0 -7 -13 -23 -30z m-916 -40 l0 -25 -15 28 c-8 15 -12 32 -8 38 9 16 24 -10
23 -41z m1036 18 c-4 -48 -4 -48 -16 -48 -5 0 -7 5 -3 12 5 8 2 9 -11 4 -17
-6 -18 -5 -3 11 8 10 18 26 21 36 10 27 15 20 12 -15z m95 22 c0 -5 -4 -10
-10 -10 -5 0 -10 5 -10 10 0 6 5 10 10 10 6 0 10 -4 10 -10z m-1160 -47 c0 -7
-5 -13 -11 -13 -5 0 -7 5 -4 10 3 6 -4 10 -17 10 -22 1 -22 1 -4 15 21 16 35
6 36 -22z m2201 14 c-10 -9 -11 -8 -5 6 3 10 9 15 12 12 3 -3 0 -11 -7 -18z
m-1221 3 c0 -9 -47 -60 -55 -60 -12 0 -3 19 20 44 25 28 35 32 35 16z m-350
-30 c0 -10 5 -22 10 -25 6 -3 10 -14 10 -23 0 -9 -9 0 -20 21 -22 40 -26 62
-10 52 6 -3 10 -15 10 -25z m-247 -5 c-3 -9 -8 -14 -10 -11 -3 3 -2 9 2 15 9
16 15 13 8 -4z m-403 -25 c0 -5 -4 -10 -10 -10 -5 0 -10 5 -10 10 0 6 5 10 10
10 6 0 10 -4 10 -10z m-186 -25 c-4 -8 -8 -15 -10 -15 -2 0 -4 7 -4 15 0 8 4
15 10 15 5 0 7 -7 4 -15z m521 -5 c-3 -5 -11 -10 -16 -10 -6 0 -7 5 -4 10 3 6
11 10 16 10 6 0 7 -4 4 -10z m705 1 c-8 -5 -26 -12 -40 -16 -24 -7 -24 -7 -5
9 11 8 29 15 40 15 16 0 17 -1 5 -8z m1255 -10 c-8 -13 -35 -15 -35 -2 0 5 8
11 18 13 21 5 26 2 17 -11z m49 -58 l7 -53 -35 0 c-27 0 -34 3 -30 15 4 8 10
13 14 10 12 -7 23 33 22 75 -2 50 14 17 22 -47z m-1191 37 c-3 -11 -7 -20 -9
-20 -2 0 -4 9 -4 20 0 11 4 20 9 20 5 0 7 -9 4 -20z m1131 -35 c-9 -45 -22
-52 -20 -12 1 19 -2 33 -6 31 -5 -3 -8 -3 -8 0 0 2 -3 11 -6 20 -5 13 -2 13
20 3 22 -10 25 -16 20 -42z m-1002 23 c-7 -7 -12 -8 -12 -2 0 6 3 14 7 17 3 4
9 5 12 2 2 -3 -1 -11 -7 -17z m-422 7 c0 -3 -10 -16 -21 -28 l-22 -22 6 23 c4
18 1 22 -19 22 -15 0 -24 -6 -24 -16 0 -9 5 -12 13 -8 8 6 8 3 -1 -9 -14 -16
-8 -42 8 -32 4 3 10 -2 14 -10 9 -24 -22 -17 -46 10 -12 14 -28 23 -35 21 -7
-3 -12 -2 -12 2 3 20 -2 33 -13 31 -23 -3 -38 1 -38 9 0 4 43 9 95 11 52 1 95
0 95 -4z m-1120 -18 c-15 -8 -28 -9 -31 -4 -4 5 -9 3 -12 -4 -4 -10 -6 -9 -6
4 -1 13 7 17 37 17 36 0 37 0 12 -13z m435 3 c3 -5 -3 -10 -14 -10 -12 0 -21
5 -21 10 0 6 6 10 14 10 8 0 18 -4 21 -10z m2445 -10 c0 -5 -5 -10 -11 -10 -5
0 -7 5 -4 10 3 6 8 10 11 10 2 0 4 -4 4 -10z m-2856 -16 c3 -8 2 -12 -4 -9 -6
3 -10 10 -10 16 0 14 7 11 14 -7z m916 -4 c0 -5 -2 -10 -4 -10 -3 0 -8 5 -11
10 -3 6 -1 10 4 10 6 0 11 -4 11 -10z m190 0 c0 -5 -2 -10 -4 -10 -3 0 -8 5
-11 10 -3 6 -1 10 4 10 6 0 11 -4 11 -10z m-678 -52 c-15 -15 -24 -6 -16 16 5
12 10 14 17 7 8 -8 8 -14 -1 -23z m-452 6 c0 -8 -4 -12 -10 -9 -5 3 -10 10
-10 16 0 5 5 9 10 9 6 0 10 -7 10 -16z m567 -6 c-3 -8 -6 -5 -6 6 -1 11 2 17
5 13 3 -3 4 -12 1 -19z m-512 -58 c-2 -61 -5 -73 -28 -94 -17 -16 -27 -20 -27
-12 0 8 6 19 14 25 8 7 16 30 18 52 3 38 2 40 -19 36 -27 -5 -40 10 -24 26 8
8 14 8 23 -1 17 -17 28 -15 28 6 0 16 8 32 15 32 1 0 1 -31 0 -70z m330 38
c-11 -36 -22 -41 -17 -8 2 16 9 30 14 30 5 0 6 -10 3 -22z m518 -18 c4 -17 3
-19 -9 -9 -8 6 -14 18 -14 26 0 20 16 8 23 -17z m-470 -22 c4 -33 2 -46 -13
-60 -20 -19 -36 -12 -19 9 9 10 8 17 -1 28 -10 12 -10 21 -2 40 17 37 29 31
35 -17z m117 12 c0 -5 -4 -10 -10 -10 -5 0 -10 5 -10 10 0 6 5 10 10 10 6 0
10 -4 10 -10z m66 -48 c-12 -12 -18 8 -10 35 l8 28 4 -28 c2 -16 1 -31 -2 -35z
m402 33 c-3 -3 -9 2 -12 12 -6 14 -5 15 5 6 7 -7 10 -15 7 -18z m27 15 c3 -5
1 -10 -4 -10 -6 0 -11 5 -11 10 0 6 2 10 4 10 3 0 8 -4 11 -10z m45 0 c-18
-12 -30 -13 -30 -2 0 4 10 9 22 9 18 2 20 0 8 -7z m-739 -43 c-10 -9 -11 -8
-5 6 3 10 9 15 12 12 3 -3 0 -11 -7 -18z m229 3 c0 -5 -2 -10 -4 -10 -3 0 -8
5 -11 10 -3 6 -1 10 4 10 6 0 11 -4 11 -10z m705 -20 c3 -5 -1 -10 -10 -10 -9
0 -13 5 -10 10 3 6 8 10 10 10 2 0 7 -4 10 -10z m-687 -57 c1 -24 -2 -43 -8
-43 -9 0 -11 7 -14 50 -1 8 -4 20 -8 25 -4 6 1 11 10 11 13 0 18 -11 20 -43z
m-208 17 c0 -5 -2 -10 -4 -10 -3 0 -8 5 -11 10 -3 6 -1 10 4 10 6 0 11 -4 11
-10z m1766 -33 c17 -9 35 -13 39 -9 5 4 5 2 1 -5 -10 -18 -96 16 -89 35 3 7 9
9 12 4 3 -5 20 -16 37 -25z m164 5 c-19 -8 -51 -16 -70 -18 -34 -4 -34 -3 -5
4 17 5 44 15 60 24 17 8 34 12 40 9 5 -2 -6 -11 -25 -19z m-1060 -1 c0 -15 -5
-18 -22 -13 -19 5 -20 7 -5 10 9 2 17 8 17 13 0 5 2 9 5 9 3 0 5 -9 5 -19z
m-1289 -5 c5 3 9 1 9 -4 0 -6 -7 -12 -15 -16 -11 -4 -15 1 -14 17 0 12 3 16 6
9 2 -6 9 -10 14 -6z m1534 -6 c3 -6 -1 -7 -9 -4 -18 7 -21 14 -7 14 6 0 13 -4
16 -10z m-120 -10 c-3 -5 -17 -10 -31 -10 -14 0 -22 4 -19 10 3 6 17 10 31 10
14 0 22 -4 19 -10z m142 -30 c1 -11 11 -34 23 -50 12 -17 17 -30 12 -30 -11 0
-38 39 -52 75 -7 18 -6 25 3 25 7 0 13 -9 14 -20z m-1094 -35 c-7 -21 -13 -19
-13 6 0 11 4 18 10 14 5 -3 7 -12 3 -20z m-63 -11 c0 -8 -4 -12 -10 -9 -5 3
-10 13 -10 21 0 8 5 12 10 9 6 -3 10 -13 10 -21z m100 6 c0 -11 -4 -20 -10
-20 -5 0 -10 9 -10 20 0 11 5 20 10 20 6 0 10 -9 10 -20z m1130 -50 c0 -5 -5
-10 -11 -10 -5 0 -7 5 -4 10 3 6 8 10 11 10 2 0 4 -4 4 -10z m-1553 -82 c-3
-8 -6 -5 -6 6 -1 11 2 17 5 13 3 -3 4 -12 1 -19z m1503 -13 c7 -14 19 -25 25
-25 7 0 18 -7 25 -15 10 -13 8 -13 -18 1 -29 14 -71 64 -54 64 5 0 15 -11 22
-25z m301 -242 c13 -17 13 -17 -6 -3 -11 8 -22 16 -24 17 -2 2 0 3 6 3 6 0 17
-8 24 -17z m49 -45 c0 -6 -6 -5 -15 2 -8 7 -15 14 -15 16 0 2 7 1 15 -2 8 -4
15 -11 15 -16z m30 -44 c0 -20 -7 -17 -20 6 -9 16 -8 18 5 14 8 -4 15 -12 15
-20z"/>
<path d="M1776 2224 c-7 -19 0 -34 17 -34 8 0 8 3 0 11 -6 6 -9 18 -6 25 3 8
3 14 0 14 -3 0 -8 -7 -11 -16z"/>
<path d="M1747 2129 c-31 -55 -32 -59 -15 -59 6 0 9 3 5 6 -3 4 5 22 20 40 14
19 21 34 17 35 -5 0 0 4 10 8 15 6 16 9 5 13 -10 4 -23 -10 -42 -43z"/>
<path d="M1595 2139 c-11 -17 1 -21 15 -4 8 9 8 15 2 15 -6 0 -14 -5 -17 -11z"/>
<path d="M1680 2081 c0 -17 18 -21 24 -6 3 9 0 15 -9 15 -8 0 -15 -4 -15 -9z"/>
<path d="M1584 2019 c1 -35 -3 -70 -7 -76 -6 -9 -2 -19 14 -33 23 -19 23 -21
-3 -24 -7 0 -14 -14 -15 -31 -1 -16 0 -23 4 -15 3 8 14 21 25 28 23 17 23 38
1 47 -17 6 -17 7 0 16 10 6 22 20 28 32 5 12 13 29 17 37 38 67 39 80 3 60
-16 -8 -21 -8 -21 1 0 6 -7 8 -17 5 -9 -4 -20 -2 -24 5 -3 6 -6 -17 -5 -52z"/>
<path d="M1707 2053 c-10 -19 -18 -67 -9 -58 10 11 25 65 18 65 -3 0 -7 -3 -9
-7z"/>
<path d="M1545 1970 c-19 -8 -19 -9 3 -9 12 -1 22 4 22 9 0 6 -1 10 -2 9 -2 0
-12 -4 -23 -9z"/>
<path d="M1530 1855 c0 -8 5 -15 10 -15 6 0 10 7 10 15 0 8 -4 15 -10 15 -5 0
-10 -7 -10 -15z"/>
<path d="M1608 1803 c-9 -2 -19 -10 -22 -18 -4 -11 1 -12 25 -3 16 5 29 14 29
19 0 9 -4 10 -32 2z"/>
<path d="M1590 1741 c0 -6 5 -13 10 -16 6 -3 10 1 10 9 0 9 -4 16 -10 16 -5 0
-10 -4 -10 -9z"/>
<path d="M1555 1720 c3 -5 11 -10 16 -10 6 0 7 5 4 10 -3 6 -11 10 -16 10 -6
0 -7 -4 -4 -10z"/>
<path d="M1575 1680 c-3 -5 -1 -10 4 -10 6 0 11 5 11 10 0 6 -2 10 -4 10 -3 0
-8 -4 -11 -10z"/>
<path d="M2423 2150 c21 -12 47 -30 57 -40 26 -26 40 -25 40 1 0 22 -37 42
-100 53 l-35 7 38 -21z"/>
<path d="M2679 2109 c-11 -11 -19 -23 -17 -25 3 -2 28 4 57 14 29 10 49 21 45
25 -15 14 -65 6 -85 -14z"/>
<path d="M2830 2110 c0 -5 5 -10 11 -10 5 0 7 5 4 10 -3 6 -8 10 -11 10 -2 0
-4 -4 -4 -10z"/>
<path d="M2328 2079 c-17 -10 -26 -41 -10 -37 4 1 27 -2 51 -6 36 -7 47 -5 56
8 11 14 14 15 25 1 15 -18 41 -20 38 -3 -3 14 -24 38 -33 38 -3 0 -3 -4 0 -10
3 -6 -1 -7 -9 -4 -9 3 -14 9 -11 13 7 12 -88 12 -107 0z"/>
<path d="M2700 2048 c0 -5 -4 -7 -9 -4 -4 3 -16 -3 -26 -14 -16 -18 -16 -20
-2 -20 10 0 17 6 17 13 0 6 5 4 11 -5 12 -21 65 -24 72 -5 4 10 6 10 6 0 1 -7
12 -13 26 -13 27 0 30 6 16 29 -10 16 -111 33 -111 19z"/>
<path d="M2473 1827 c2 -7 12 -14 23 -16 10 -1 27 -10 37 -19 15 -13 23 -13
60 -2 51 16 69 30 40 30 -12 0 -25 -4 -28 -10 -9 -15 -56 -12 -75 5 -22 20
-63 28 -57 12z"/>
<path d="M2350 1767 c0 -11 76 -65 100 -71 21 -6 22 -5 7 4 -25 16 -11 31 19
20 13 -5 28 -9 32 -9 4 1 38 1 76 0 56 -1 67 -4 62 -16 -3 -8 -3 -15 1 -15 5
0 73 40 73 43 0 1 -53 2 -118 3 -106 1 -171 12 -234 39 -10 4 -18 5 -18 2z"/>
<path d="M2501 1636 c2 -2 18 -6 34 -10 22 -5 26 -4 15 4 -14 9 -59 15 -49 6z"/>
<path d="M3208 2193 c7 -3 16 -2 19 1 4 3 -2 6 -13 5 -11 0 -14 -3 -6 -6z"/>
<path d="M910 2164 c0 -8 5 -12 10 -9 6 3 10 10 10 16 0 5 -4 9 -10 9 -5 0
-10 -7 -10 -16z"/>
<path d="M1130 2140 c0 -11 2 -20 5 -20 2 0 9 9 15 20 9 16 8 20 -5 20 -8 0
-15 -9 -15 -20z"/>
<path d="M1415 1649 c-4 -6 -5 -12 -2 -15 2 -3 7 2 10 11 7 17 1 20 -8 4z"/>
<path d="M1140 1703 c0 -16 -4 -21 -15 -17 -10 4 -15 0 -14 -12 0 -11 3 -14 5
-7 3 7 11 10 19 7 18 -7 28 12 16 33 -9 16 -10 16 -11 -4z"/>
<path d="M1191 1692 c-7 -12 -8 -22 -2 -22 5 0 11 6 14 13 3 7 9 2 15 -13 6
-14 11 -18 11 -9 1 8 -5 24 -13 34 -13 18 -14 18 -25 -3z"/>
<path d="M1544 3165 c0 -44 20 -41 24 3 2 22 -1 32 -10 32 -9 0 -14 -12 -14
-35z"/>
<path d="M1798 3193 c7 -3 16 -2 19 1 4 3 -2 6 -13 5 -11 0 -14 -3 -6 -6z"/>
<path d="M1835 3190 c3 -5 8 -10 11 -10 2 0 4 5 4 10 0 6 -5 10 -11 10 -5 0
-7 -4 -4 -10z"/>
<path d="M1900 3196 c0 -9 30 -14 35 -6 4 6 -3 10 -14 10 -12 0 -21 -2 -21 -4z"/>
<path d="M2205 3190 c3 -5 8 -10 11 -10 2 0 4 5 4 10 0 6 -5 10 -11 10 -5 0
-7 -4 -4 -10z"/>
<path d="M2900 3184 c0 -14 3 -14 15 -4 8 7 15 14 15 16 0 2 -7 4 -15 4 -8 0
-15 -7 -15 -16z"/>
<path d="M3588 3160 c-10 -25 -12 -40 -6 -40 6 0 4 -8 -5 -18 -18 -19 -20 -65
-2 -54 5 4 23 7 38 8 25 2 28 -1 23 -22 -3 -12 -1 -26 4 -29 6 -4 7 -11 4 -17
-4 -7 -2 -8 4 -4 7 4 11 19 10 34 -3 32 20 104 36 114 8 6 7 8 -1 8 -7 0 -17
-8 -23 -17 -9 -14 -10 -9 -5 22 4 22 12 44 18 48 7 5 2 7 -13 5 -15 -2 -34
-17 -48 -38 -23 -34 -25 -26 -5 28 3 6 1 12 -3 12 -5 0 -17 -18 -26 -40z m19
-72 c-3 -7 -5 -2 -5 12 0 14 2 19 5 13 2 -7 2 -19 0 -25z"/>
<path d="M3706 3184 c-4 -9 -4 -19 -2 -21 8 -8 26 8 26 23 0 19 -16 18 -24 -2z"/>
<path d="M5129 2753 c0 -653 -3 -773 -14 -774 -5 0 -13 10 -16 23 l-5 23 -15
-22 c-16 -27 -22 -28 -43 -7 -21 21 -20 29 7 42 21 11 21 11 -5 6 -21 -5 -28
-1 -33 16 -10 32 -32 7 -27 -32 6 -56 6 -62 -1 -88 -4 -14 -4 -19 -1 -12 8 17
24 5 24 -18 0 -10 7 -20 15 -24 8 -3 15 -16 15 -30 0 -13 7 -27 16 -30 8 -3
13 -2 10 2 -3 5 1 9 9 9 8 0 12 -4 9 -9 -3 -4 2 -11 10 -14 9 -3 16 -12 16
-20 0 -8 6 -14 14 -14 9 0 14 -13 14 -40 1 -31 -4 -43 -21 -52 -12 -7 -26 -13
-32 -13 -5 -1 -21 -7 -35 -14 -21 -11 -23 -11 -12 0 17 18 15 34 -3 19 -8 -7
-15 -23 -15 -36 0 -28 -12 -31 -31 -8 -10 13 -10 17 1 24 8 5 11 12 6 17 -4 4
-12 0 -17 -10 -6 -9 -26 -24 -46 -32 -46 -20 -50 -19 -28 5 20 22 20 22 -47
20 -27 -1 -48 3 -48 8 0 6 -7 9 -15 8 -20 -3 -32 -16 -15 -16 11 0 11 -3 2
-12 -8 -8 -15 -8 -21 -3 -15 16 -16 71 -2 89 10 12 10 16 1 16 -7 0 -10 8 -7
20 4 17 1 19 -21 14 -15 -4 -30 -9 -34 -11 -12 -6 -9 -33 3 -33 5 0 7 -4 4
-10 -3 -5 -15 -10 -26 -10 -10 0 -20 5 -20 10 -1 6 -2 15 -3 20 0 6 -8 15 -16
20 -13 9 -13 11 0 19 18 12 7 26 -14 18 -11 -5 -14 -15 -10 -37 5 -24 3 -30
-11 -30 -13 0 -15 6 -10 30 4 20 3 30 -5 30 -12 0 -4 40 10 50 8 6 6 98 -3
106 -3 4 -9 -6 -13 -20 -5 -20 -9 -24 -19 -16 -10 9 -12 7 -9 -8 3 -10 -2 -24
-10 -31 -12 -10 -16 -11 -16 -1 0 7 -7 10 -15 6 -18 -7 -20 5 -3 22 10 10 8
16 -6 30 -18 16 -18 16 -13 0 3 -10 2 -20 -3 -23 -5 -3 -6 12 -4 32 3 21 9 40
14 41 6 2 10 12 10 23 0 18 2 18 24 4 23 -15 24 -15 28 15 4 29 4 29 -14 13
-11 -10 -19 -13 -18 -8 5 21 -1 29 -10 15 -5 -8 -12 -11 -16 -7 -4 3 -2 12 4
20 7 8 7 18 2 27 -15 23 -12 30 10 30 11 0 20 5 20 11 0 6 -7 9 -15 5 -20 -7
-20 22 0 44 13 15 13 19 -6 38 -11 13 -17 28 -13 35 5 8 2 7 -9 -2 -9 -7 -17
-10 -17 -6 0 4 -12 -4 -26 -19 -15 -14 -34 -26 -43 -27 -10 0 -12 -2 -3 -6 15
-6 16 -39 1 -48 -14 -9 -5 -75 12 -86 10 -6 10 -10 0 -23 -13 -15 -9 -20 14
-17 6 1 -1 -8 -14 -19 -13 -11 -21 -26 -17 -35 3 -9 -5 -20 -22 -30 -26 -15
-26 -16 -2 -9 23 6 24 6 10 -12 -8 -10 -15 -21 -16 -22 -1 -2 -8 6 -14 19 -11
19 -9 25 11 41 l24 19 -25 -7 c-14 -4 -28 -12 -32 -18 -10 -14 1 -49 18 -59 8
-4 14 -13 14 -18 0 -6 -7 -3 -16 5 -19 19 -24 19 -49 0 -17 -12 -20 -25 -17
-74 1 -33 -2 -60 -7 -60 -5 0 -7 8 -5 18 2 9 1 37 -4 62 l-7 45 -23 -23 c-26
-26 -27 -24 -9 12 8 14 17 23 20 19 4 -3 7 2 7 13 0 14 2 16 9 6 10 -17 17
-16 39 6 14 12 16 21 9 30 -8 11 -12 10 -20 -5 -9 -15 -12 -13 -22 17 -12 34
-12 34 -24 12 -6 -12 -8 -21 -4 -20 4 2 9 0 11 -5 1 -4 0 -7 -3 -7 -3 0 -9 0
-15 0 -16 0 -11 38 6 48 9 5 25 7 34 5 10 -3 21 0 24 6 5 7 -3 11 -21 12 -27
0 -27 1 -5 11 15 8 22 20 22 40 0 16 5 28 13 28 21 0 57 39 51 54 -3 8 4 21
16 29 23 16 19 37 -7 37 -13 0 -13 3 -3 15 9 11 9 15 1 15 -8 0 -6 11 4 33
l16 32 -20 -25 c-18 -22 -20 -23 -26 -7 -4 9 -11 14 -16 11 -5 -3 -9 0 -9 5 0
6 -7 11 -16 11 -8 0 -12 5 -9 10 11 18 -11 11 -34 -12 -22 -19 -22 -22 -7 -33
9 -7 16 -16 16 -20 0 -4 -6 -2 -14 4 -11 10 -16 8 -21 -8 -3 -10 -13 -22 -22
-26 -16 -5 -16 -5 0 12 16 18 14 63 -3 63 -18 0 -31 -59 -20 -90 6 -15 -4 -47
-18 -57 -25 -20 -37 -15 -18 6 13 14 14 21 5 26 -7 5 -10 24 -6 55 3 27 1 52
-5 58 -13 13 -2 32 19 32 9 0 13 3 10 6 -3 4 -1 16 5 28 10 19 10 20 -5 8 -9
-8 -21 -11 -26 -7 -6 3 -16 -3 -23 -15 -7 -11 -18 -20 -25 -20 -6 0 -13 -16
-15 -35 -4 -52 -23 -42 -21 10 l2 45 -24 -17 c-22 -17 -24 -24 -24 -132 0
-113 0 -114 30 -148 30 -34 31 -53 3 -53 -17 0 -49 -28 -57 -50 -4 -10 -6 -8
-6 7 -1 35 -18 36 -30 2 -7 -22 -15 -29 -26 -25 -8 3 -15 0 -15 -7 0 -7 -5 -4
-11 6 -13 21 -30 7 -46 -38 -6 -17 -16 -29 -22 -27 -15 3 88 -195 114 -219 11
-10 49 -38 85 -62 36 -23 71 -54 78 -69 14 -31 86 -96 128 -118 16 -8 43 -28
61 -45 17 -16 48 -46 68 -65 53 -49 148 -196 141 -216 -3 -9 -3 -21 1 -27 4
-7 6 -87 5 -180 -3 -151 -2 -172 16 -210 47 -97 50 -112 37 -143 -7 -16 -24
-47 -39 -69 -15 -22 -53 -91 -84 -152 -41 -84 -58 -132 -67 -188 l-12 -75 658
0 659 0 0 1600 0 1600 -275 0 -275 0 -1 -447z m-1095 -509 c3 -8 2 -12 -4 -9
-6 3 -10 10 -10 16 0 14 7 11 14 -7z m286 -126 c0 -19 -2 -20 -10 -8 -9 13
-14 7 -11 -12 0 -5 -6 -8 -15 -8 -9 0 -12 -5 -8 -12 4 -8 2 -8 -7 1 -11 10
-11 15 -1 18 6 3 9 9 6 15 -7 11 13 28 34 28 6 0 12 -10 12 -22z m-144 -43
c-1 -17 -7 -25 -19 -25 -17 0 -17 1 -3 16 9 8 16 20 16 25 0 5 2 9 4 9 2 0 3
-11 2 -25z m51 -29 c-12 -14 -23 -23 -25 -21 -7 6 23 45 35 45 6 0 2 -11 -10
-24z m-47 -13 c-1 -18 -18 -35 -24 -24 -4 6 -4 16 -1 21 7 12 25 13 25 3z
m826 -12 c-4 -5 7 -22 22 -38 27 -27 28 -29 13 -54 l-16 -26 -18 23 c-21 28
-22 38 -2 30 21 -8 19 16 -5 41 -14 15 -16 23 -7 26 18 8 19 8 13 -2z m-779
-33 c-3 -8 -6 -5 -6 6 -1 11 2 17 5 13 3 -3 4 -12 1 -19z m226 7 c-3 -9 -8
-14 -10 -11 -3 3 -2 9 2 15 9 16 15 13 8 -4z m-252 -4 c-8 -5 -11 -16 -7 -26
4 -10 -1 -28 -9 -42 -13 -19 -19 -22 -31 -13 -16 14 -9 34 8 24 8 -5 9 -1 5
10 -5 11 -3 15 5 10 7 -5 9 0 6 14 -6 20 3 30 27 31 6 0 4 -3 -4 -8z m230 -34
c-1 -4 -1 -15 -1 -24 0 -15 -2 -16 -10 -3 -13 20 -13 43 1 38 6 -2 10 -7 10
-11z m663 -16 c3 -5 -3 -11 -15 -14 -16 -4 -18 -3 -8 9 13 16 16 17 23 5z
m-1027 -33 c-3 -8 -6 -5 -6 6 -1 11 2 17 5 13 3 -3 4 -12 1 -19z m336 -3 c-3
-9 -8 -14 -10 -11 -3 3 -2 9 2 15 9 16 15 13 8 -4z m163 -32 c-4 -10 -7 -20
-7 -23 -1 -3 -5 -10 -9 -15 -5 -6 -5 -17 0 -25 15 -23 12 -50 -5 -50 -8 0 -15
7 -15 16 0 8 -7 22 -15 30 -19 20 -19 30 1 46 8 7 23 20 32 29 21 19 27 16 18
-8z m529 -3 c3 -5 1 -10 -4 -10 -6 0 -11 5 -11 10 0 6 2 10 4 10 3 0 8 -4 11
-10z m-665 -10 c0 -5 -4 -10 -10 -10 -5 0 -10 -4 -10 -10 0 -5 8 -7 18 -4 13
5 14 4 3 -4 -7 -5 -11 -14 -7 -20 3 -6 2 -13 -4 -17 -5 -3 -12 6 -16 20 -3 14
-10 25 -16 25 -5 0 -7 -9 -3 -19 3 -11 1 -22 -5 -26 -5 -3 -10 2 -10 12 0 15
-2 16 -10 3 -6 -9 -10 -10 -10 -3 0 26 14 43 36 43 13 0 24 5 24 10 0 6 5 10
10 10 6 0 10 -4 10 -10z m57 -42 c-3 -8 -6 -5 -6 6 -1 11 2 17 5 13 3 -3 4
-12 1 -19z m633 -13 c0 -5 -5 -3 -10 5 -5 8 -10 20 -10 25 0 6 5 3 10 -5 5 -8
10 -19 10 -25z m-790 -12 c0 -22 -2 -25 -10 -13 -8 12 -10 9 -10 -12 0 -14 -3
-34 -7 -44 -4 -11 -3 -15 5 -10 6 3 16 -2 21 -13 14 -25 14 -41 0 -41 -5 0 -7
5 -3 11 4 8 -3 9 -24 5 -26 -6 -30 -4 -36 20 -4 14 -5 29 -1 32 3 3 5 -2 5
-11 0 -37 19 -14 26 30 6 39 20 71 32 73 1 0 2 -12 2 -27z m169 -9 c4 3 7 -13
6 -34 0 -21 -3 -36 -7 -33 -5 2 -8 -5 -8 -17 0 -12 -4 -18 -10 -15 -6 4 -17 2
-24 -4 -11 -9 -15 -6 -18 13 -4 17 -1 23 9 19 7 -3 13 1 13 8 0 11 3 11 11 -1
7 -11 9 -7 8 20 -2 48 1 68 8 52 2 -6 8 -10 12 -8z m-81 -39 c-5 -5 -17 -21
-28 -34 -24 -29 -27 -15 -4 17 9 13 13 26 10 29 -3 3 -8 -2 -12 -11 -3 -9 -10
-16 -15 -16 -15 0 -10 22 9 40 16 16 18 16 33 1 9 -9 12 -20 7 -26z m-418 -5
c0 -16 -4 -30 -10 -30 -11 0 -14 43 -3 53 11 12 13 8 13 -23z m670 -50 c0 -5
-2 -10 -4 -10 -3 0 -8 5 -11 10 -3 6 -1 10 4 10 6 0 11 -4 11 -10z m460 -30
c0 -22 -1 -23 -24 -14 -18 7 -10 34 10 34 8 0 14 -9 14 -20z m-64 -68 c-10
-10 -29 15 -21 28 6 9 10 8 17 -4 6 -10 7 -20 4 -24z m64 18 c0 -5 -4 -10 -9
-10 -6 0 -13 5 -16 10 -3 6 1 10 9 10 9 0 16 -4 16 -10z m-26 -824 c-3 -9 -10
-16 -15 -16 -6 0 -5 9 1 21 13 24 24 20 14 -5z m-44 -47 c0 -6 -4 -7 -10 -4
-5 3 -10 11 -10 16 0 6 5 7 10 4 6 -3 10 -11 10 -16z m-450 -145 c0 -8 -4 -12
-10 -9 -5 3 -10 10 -10 16 0 5 5 9 10 9 6 0 10 -7 10 -16z m183 -18 c20 -15
22 -26 6 -26 -7 0 -18 -8 -25 -17 -17 -24 -25 -13 -18 25 7 35 11 37 37 18z
m57 -36 c0 -5 -2 -10 -4 -10 -3 0 -8 5 -11 10 -3 6 -1 10 4 10 6 0 11 -4 11
-10z m120 -10 c0 -5 -2 -10 -4 -10 -3 0 -8 5 -11 10 -3 6 -1 10 4 10 6 0 11
-4 11 -10z m-280 -20 c0 -5 7 -10 15 -10 8 0 15 -9 15 -20 0 -11 -5 -20 -11
-20 -5 0 -7 -5 -3 -12 5 -8 11 -6 19 5 15 21 26 22 19 3 -3 -8 -1 -17 5 -21
22 -13 10 -22 -34 -23 -48 0 -81 22 -56 38 9 5 12 20 9 39 -3 21 0 31 9 31 7
0 13 -4 13 -10z m140 -20 c0 -5 -2 -10 -4 -10 -3 0 -8 5 -11 10 -3 6 -1 10 4
10 6 0 11 -4 11 -10z m93 -4 c4 -10 1 -13 -9 -9 -7 3 -14 9 -14 14 0 14 17 10
23 -5z m-43 -6 c0 -5 -2 -10 -4 -10 -3 0 -8 5 -11 10 -3 6 -1 10 4 10 6 0 11
-4 11 -10z m94 -1 c-3 -6 0 -15 7 -20 9 -6 10 -9 2 -9 -15 0 -26 17 -18 30 3
6 8 10 11 10 3 0 2 -5 -2 -11z m136 -4 c0 -8 -7 -15 -15 -15 -16 0 -20 12 -8
23 11 12 23 8 23 -8z m-300 -15 c0 -5 -4 -10 -10 -10 -5 0 -10 5 -10 10 0 6 5
10 10 10 6 0 10 -4 10 -10z m316 -37 c-14 -14 -23 4 -13 27 l10 25 5 -23 c2
-13 1 -26 -2 -29z m-349 15 c-3 -8 -6 -5 -6 6 -1 11 2 17 5 13 3 -3 4 -12 1
-19z m252 -73 l-1 -30 -13 30 c-8 17 -14 44 -14 60 l1 30 13 -30 c8 -16 14
-43 14 -60z m21 -55 c0 -25 44 -100 61 -105 16 -5 19 -16 19 -63 0 -56 0 -57
-30 -59 -33 -2 -39 11 -12 26 15 9 13 10 -10 11 -23 0 -26 4 -24 28 1 15 -2
33 -7 40 -6 8 -5 12 2 12 7 0 9 4 6 10 -3 5 -8 23 -10 39 -2 17 -6 40 -10 51
-4 11 -2 20 4 20 6 0 11 -5 11 -10z m78 -274 c-1 -15 -7 -22 -15 -19 -16 6
-16 16 -1 31 17 17 18 15 16 -12z"/>
<path d="M1910 3161 c0 -6 4 -13 10 -16 6 -3 7 1 4 9 -7 18 -14 21 -14 7z"/>
<path d="M2749 3150 c-14 -15 -13 -18 9 -34 20 -15 26 -16 33 -5 5 8 2 21 -9
34 -9 11 -17 20 -17 21 0 0 -7 -7 -16 -16z m31 -20 c0 -5 -5 -10 -11 -10 -5 0
-7 5 -4 10 3 6 8 10 11 10 2 0 4 -4 4 -10z"/>
<path d="M2796 3148 c3 -4 9 -8 15 -8 5 0 9 4 9 8 0 5 -7 9 -15 9 -8 0 -12 -4
-9 -9z"/>
<path d="M2910 3144 c0 -8 5 -12 10 -9 6 3 10 10 10 16 0 5 -4 9 -10 9 -5 0
-10 -7 -10 -16z"/>
<path d="M3250 3150 c0 -5 5 -10 10 -10 6 0 10 5 10 10 0 6 -4 10 -10 10 -5 0
-10 -4 -10 -10z"/>
<path d="M3355 3150 c3 -5 8 -10 11 -10 2 0 4 5 4 10 0 6 -5 10 -11 10 -5 0
-7 -4 -4 -10z"/>
<path d="M1445 3125 c-29 -28 -32 -48 -8 -43 18 3 59 68 42 68 -5 0 -21 -11
-34 -25z"/>
<path d="M1887 3118 c-4 -12 -4 -24 -1 -27 6 -7 24 20 24 37 0 21 -17 13 -23
-10z"/>
<path d="M2285 3120 c3 -5 13 -10 21 -10 8 0 12 5 9 10 -3 6 -13 10 -21 10 -8
0 -12 -4 -9 -10z"/>
<path d="M1012 3100 c0 -14 2 -19 5 -12 2 6 2 18 0 25 -3 6 -5 1 -5 -13z"/>
<path d="M1558 3113 c7 -3 16 -2 19 1 4 3 -2 6 -13 5 -11 0 -14 -3 -6 -6z"/>
<path d="M641 3093 c-6 -10 -11 -12 -11 -5 0 6 -4 12 -9 12 -10 0 -24 -30 -17
-37 6 -7 66 29 66 39 0 14 -19 8 -29 -9z"/>
<path d="M1380 3095 c-10 -12 -10 -15 4 -15 9 0 16 7 16 15 0 8 -2 15 -4 15
-2 0 -9 -7 -16 -15z"/>
<path d="M2040 3100 c0 -5 5 -10 11 -10 5 0 7 5 4 10 -3 6 -8 10 -11 10 -2 0
-4 -4 -4 -10z"/>
<path d="M3300 3085 c0 -14 4 -25 9 -25 4 0 6 11 3 25 -2 14 -6 25 -8 25 -2 0
-4 -11 -4 -25z"/>
<path d="M1160 3086 c0 -7 7 -19 15 -26 13 -11 15 -8 15 14 0 16 -5 26 -15 26
-8 0 -15 -6 -15 -14z"/>
<path d="M1230 3084 c0 -8 5 -12 10 -9 6 3 10 10 10 16 0 5 -4 9 -10 9 -5 0
-10 -7 -10 -16z"/>
<path d="M2736 3091 c-4 -7 -5 -15 -2 -18 9 -9 19 4 14 18 -4 11 -6 11 -12 0z"/>
<path d="M1271 3064 c0 -11 3 -14 6 -6 3 7 2 16 -1 19 -3 4 -6 -2 -5 -13z"/>
<path d="M3227 3066 c-4 -10 -5 -21 -2 -24 9 -9 17 6 13 25 -3 17 -4 17 -11
-1z"/>
<path d="M4003 3038 c-9 -16 -16 -54 -7 -46 3 3 6 12 8 20 1 7 5 19 9 26 5 6
6 12 3 12 -3 0 -8 -6 -13 -12z"/>
<path d="M1193 3021 c-7 -11 -8 -23 -2 -32 5 -8 6 -22 3 -33 -4 -12 -2 -17 7
-14 9 3 12 19 10 49 -3 53 -4 53 -18 30z"/>
<path d="M1260 3019 c0 -11 5 -17 10 -14 6 3 10 13 10 21 0 8 -4 14 -10 14 -5
0 -10 -9 -10 -21z"/>
<path d="M2781 3024 c0 -11 3 -14 6 -6 3 7 2 16 -1 19 -3 4 -6 -2 -5 -13z"/>
<path d="M1558 2993 c-1 -10 -2 -25 -3 -33 0 -8 -4 -21 -9 -28 -13 -22 5 -28
20 -7 9 12 11 21 4 23 -15 5 -12 29 6 36 8 3 12 10 9 16 -10 16 -25 12 -27 -7z"/>
<path d="M970 2990 c0 -5 5 -10 11 -10 5 0 7 5 4 10 -3 6 -8 10 -11 10 -2 0
-4 -4 -4 -10z"/>
<path d="M1996 2987 c3 -10 9 -15 12 -12 3 3 0 11 -7 18 -10 9 -11 8 -5 -6z"/>
<path d="M2741 2984 c0 -11 3 -14 6 -6 3 7 2 16 -1 19 -3 4 -6 -2 -5 -13z"/>
<path d="M2779 2975 c-18 -41 -19 -41 -30 -25 -8 11 -9 6 -5 -19 3 -18 6 -40
6 -48 0 -8 8 -13 18 -11 11 2 16 -3 15 -16 -1 -13 2 -15 10 -7 7 7 7 18 -1 36
-16 35 -15 54 2 32 14 -18 13 -21 31 61 2 6 -1 12 -6 12 -5 0 -9 -6 -10 -12 0
-7 -4 -4 -8 7 -8 18 -10 18 -22 -10z"/>
<path d="M2620 2976 c0 -14 -5 -17 -24 -12 -20 5 -23 3 -19 -14 5 -19 23 -28
23 -12 0 5 9 13 20 18 14 7 17 13 10 24 -8 13 -10 12 -10 -4z"/>
<path d="M4242 2975 c4 -4 4 -13 -1 -19 -6 -7 -5 -19 2 -32 12 -20 12 -20 30
-1 19 19 18 19 -3 12 -20 -6 -22 -4 -17 14 3 11 0 24 -6 28 -7 3 -9 3 -5 -2z"/>
<path d="M2911 2943 c0 -17 -8 -39 -17 -47 -14 -15 -14 -17 0 -32 9 -8 16 -22
16 -30 0 -8 10 -14 22 -14 20 0 21 1 3 20 -15 16 -16 22 -5 35 10 12 10 21 2
38 -6 12 -13 31 -15 42 -3 12 -5 8 -6 -12z"/>
<path d="M962 2951 c2 -7 7 -12 11 -12 12 1 9 15 -3 20 -7 2 -11 -2 -8 -8z"/>
<path d="M2027 2949 c7 -7 15 -10 18 -7 3 3 -2 9 -12 12 -14 6 -15 5 -6 -5z"/>
<path d="M4723 2953 c4 -3 2 -12 -4 -20 -9 -10 -6 -13 15 -13 25 0 25 1 9 20
-10 11 -19 20 -22 20 -2 0 -1 -3 2 -7z"/>
<path d="M2634 2934 c4 -11 2 -15 -7 -11 -7 3 -13 -3 -13 -14 0 -17 2 -17 18
-2 20 18 24 43 7 43 -6 0 -8 -7 -5 -16z"/>
<path d="M2557 2933 c-4 -3 -7 -13 -7 -22 1 -13 3 -13 11 2 11 19 8 33 -4 20z"/>
<path d="M2955 2929 c-4 -6 -5 -12 -2 -15 2 -3 7 2 10 11 7 17 1 20 -8 4z"/>
<path d="M1184 2881 c-1 -34 -1 -34 17 -13 9 12 22 22 28 22 6 0 11 6 11 13 0
6 -12 12 -27 12 -25 0 -28 -4 -29 -34z"/>
<path d="M2047 2900 c-3 -11 -1 -23 4 -26 5 -3 9 -16 9 -30 0 -13 5 -24 11
-24 14 0 7 92 -7 97 -6 2 -14 -5 -17 -17z"/>
<path d="M2185 2909 c-9 -14 -2 -20 14 -10 8 6 9 11 3 15 -6 3 -14 1 -17 -5z"/>
<path d="M2481 2908 c1 -27 15 -52 23 -40 4 6 2 21 -4 32 -12 23 -20 26 -19 8z"/>
<path d="M2520 2900 c0 -11 5 -20 10 -20 6 0 10 9 10 20 0 11 -4 20 -10 20 -5
0 -10 -9 -10 -20z"/>
<path d="M2998 2903 c-2 -32 -4 -38 -16 -61 -7 -12 -10 -28 -6 -34 5 -7 10 -3
16 11 4 12 11 20 16 17 4 -2 8 16 8 40 1 41 -14 65 -18 27z"/>
<path d="M1355 2900 c-3 -5 1 -10 10 -10 9 0 13 5 10 10 -3 6 -8 10 -10 10 -2
0 -7 -4 -10 -10z"/>
<path d="M1650 2903 c0 -14 19 -38 25 -32 8 8 -5 39 -16 39 -5 0 -9 -3 -9 -7z"/>
<path d="M1277 2893 c-9 -9 -9 -63 1 -63 4 0 7 16 8 35 1 38 0 38 -9 28z"/>
<path d="M1830 2885 c-7 -8 -16 -13 -20 -10 -7 5 -24 -24 -18 -31 8 -8 68 27
68 41 0 19 -14 19 -30 0z"/>
<path d="M4297 2894 c-4 -4 -7 -14 -7 -23 0 -11 3 -12 11 -4 6 6 10 16 7 23
-2 6 -7 8 -11 4z"/>
<path d="M1960 2869 c0 -5 5 -7 10 -4 6 3 10 8 10 11 0 2 -4 4 -10 4 -5 0 -10
-5 -10 -11z"/>
<path d="M1600 2859 c0 -5 5 -7 10 -4 6 3 10 8 10 11 0 2 -4 4 -10 4 -5 0 -10
-5 -10 -11z"/>
<path d="M2194 2854 c3 -9 6 -18 6 -20 0 -2 7 -4 15 -4 18 0 19 12 3 28 -17
17 -31 15 -24 -4z"/>
<path d="M1461 2834 c0 -11 3 -14 6 -6 3 7 2 16 -1 19 -3 4 -6 -2 -5 -13z"/>
<path d="M1845 2830 c3 -5 8 -10 11 -10 2 0 4 5 4 10 0 6 -5 10 -11 10 -5 0
-7 -4 -4 -10z"/>
<path d="M2535 2830 c3 -5 10 -10 16 -10 5 0 9 5 9 10 0 6 -7 10 -16 10 -8 0
-12 -4 -9 -10z"/>
<path d="M1210 2815 c-14 -16 -10 -18 14 -9 9 3 16 10 16 15 0 14 -16 11 -30
-6z"/>
<path d="M1640 2795 c0 -8 2 -15 4 -15 2 0 6 7 10 15 3 8 1 15 -4 15 -6 0 -10
-7 -10 -15z"/>
<path d="M2502 2795 c-11 -12 -10 -15 3 -15 8 0 15 7 15 15 0 18 -2 18 -18 0z"/>
<path d="M2772 2790 c-18 -29 -15 -36 8 -15 16 14 20 15 20 4 0 -8 -4 -19 -8
-24 -5 -6 -1 -18 10 -28 18 -17 18 -17 12 8 -4 15 -2 25 5 25 15 0 14 19 -3
36 -19 19 -29 18 -44 -6z"/>
<path d="M2928 2801 c8 -4 10 -15 6 -27 -9 -23 -1 -17 14 11 9 18 7 21 -11 22
-14 2 -17 -1 -9 -6z"/>
<path d="M4006 2784 c-9 -24 -2 -26 12 -4 7 11 8 20 3 20 -5 0 -12 -7 -15 -16z"/>
<path d="M2950 2755 c0 -8 4 -15 10 -15 5 0 7 7 4 15 -4 8 -8 15 -10 15 -2 0
-4 -7 -4 -15z"/>
<path d="M4059 2743 l-12 -28 -7 25 -8 25 -1 -27 c-1 -36 26 -38 35 -2 5 19 9
22 15 12 6 -9 9 -9 9 -1 0 25 -21 23 -31 -4z"/>
<path d="M1637 2743 c-4 -3 -7 -11 -7 -17 0 -6 5 -5 12 2 6 6 9 14 7 17 -3 3
-9 2 -12 -2z"/>
<path d="M2061 2734 c0 -11 3 -14 6 -6 3 7 2 16 -1 19 -3 4 -6 -2 -5 -13z"/>
<path d="M1985 2679 c-4 -6 -5 -12 -2 -15 2 -3 7 2 10 11 7 17 1 20 -8 4z"/>
<path d="M1746 2636 c21 -15 30 -14 19 3 -3 6 -14 11 -23 11 -13 0 -13 -2 4
-14z"/>
<path d="M1923 2642 c-8 -5 -6 -13 7 -30 10 -12 21 -22 25 -22 4 0 3 6 -3 13
-5 6 -11 20 -13 29 -3 10 -9 15 -16 10z"/>
<path d="M4230 2635 c0 -8 2 -15 4 -15 2 0 6 7 10 15 3 8 1 15 -4 15 -6 0 -10
-7 -10 -15z"/>
<path d="M4407 2631 c-4 -17 -3 -21 5 -13 5 5 8 16 6 23 -3 8 -7 3 -11 -10z"/>
<path d="M1797 2633 c-4 -3 -7 -11 -7 -17 0 -6 5 -5 12 2 6 6 9 14 7 17 -3 3
-9 2 -12 -2z"/>
<path d="M4525 2630 c3 -5 8 -10 11 -10 2 0 4 5 4 10 0 6 -5 10 -11 10 -5 0
-7 -4 -4 -10z"/>
<path d="M4047 2623 c8 -3 11 -14 7 -29 -4 -15 -2 -24 5 -24 6 0 11 14 11 30
0 22 -5 30 -17 29 -11 0 -13 -3 -6 -6z"/>
<path d="M1360 2565 c0 -9 6 -12 15 -9 8 4 12 10 9 15 -8 14 -24 10 -24 -6z"/>
<path d="M3464 2500 c-12 -38 -18 -67 -13 -64 11 6 42 111 37 124 -2 5 -13
-22 -24 -60z"/>
<path d="M4240 2531 c0 -8 -17 -10 -52 -8 -29 2 -87 0 -128 -3 -62 -6 -51 -7
70 -8 80 -1 141 2 135 6 -5 4 -13 11 -17 16 -5 5 -8 4 -8 -3z"/>
<path d="M4017 2473 c-12 -11 -8 -85 3 -78 6 4 8 15 5 25 -3 10 -1 21 5 25 5
3 10 -2 11 -12 0 -15 2 -14 11 5 17 34 27 26 21 -18 -5 -33 -3 -40 11 -40 10
0 14 5 11 11 -10 15 27 40 41 28 8 -6 13 -5 17 3 2 8 17 14 31 16 23 2 26 -1
21 -17 -8 -26 13 -37 33 -17 10 10 12 16 4 16 -6 0 -9 7 -6 15 4 9 0 15 -7 15
-11 0 -11 3 1 10 12 8 11 10 -7 10 -12 0 -25 -4 -28 -10 -3 -5 -12 -10 -18
-10 -7 0 -6 4 3 10 12 7 8 10 -15 11 -16 0 -55 3 -86 5 -31 2 -59 1 -62 -3z"/>
<path d="M3825 2420 c-3 -6 1 -7 9 -4 18 7 21 14 7 14 -6 0 -13 -4 -16 -10z"/>
<path d="M4271 2401 c-7 -5 -12 -14 -10 -20 2 -6 10 -2 17 9 14 22 13 23 -7
11z"/>
<path d="M5037 2329 c7 -7 15 -10 18 -7 3 3 -2 9 -12 12 -14 6 -15 5 -6 -5z"/>
<path d="M4215 2320 c-3 -5 -1 -10 4 -10 6 0 11 5 11 10 0 6 -2 10 -4 10 -3 0
-8 -4 -11 -10z"/>
<path d="M4424 2274 c-18 -14 -18 -15 4 -4 12 6 22 13 22 15 0 8 -5 6 -26 -11z"/>
<path d="M5070 2276 c0 -8 5 -18 12 -22 7 -4 8 -3 4 4 -4 7 -1 12 8 12 8 0 18
5 21 10 4 6 -5 10 -19 10 -16 0 -26 -6 -26 -14z"/>
<path d="M4535 2230 c-3 -6 1 -7 9 -4 18 7 21 14 7 14 -6 0 -13 -4 -16 -10z"/>
<path d="M4595 2199 c-4 -5 -17 -9 -28 -7 -12 1 -28 -1 -34 -5 -18 -12 -16
-38 2 -31 10 4 15 0 15 -16 0 -11 4 -18 10 -15 6 3 7 -1 4 -10 -4 -10 -2 -15
7 -13 9 2 13 -5 11 -21 -1 -14 3 -28 9 -32 6 -4 8 -12 4 -19 -6 -9 -9 -9 -16
1 -7 11 -9 11 -9 -2 0 -14 19 -29 35 -29 9 0 13 65 5 75 -15 18 -21 103 -8
111 7 5 9 1 5 -9 -7 -20 13 -23 31 -5 14 14 16 32 3 23 -5 -3 -12 -1 -16 5 -8
13 -22 13 -30 -1z"/>
<path d="M5025 2190 c-3 -5 -1 -10 4 -10 6 0 11 5 11 10 0 6 -2 10 -4 10 -3 0
-8 -4 -11 -10z"/>
<path d="M4678 2174 c-9 -14 7 -50 16 -36 4 7 3 19 -2 28 -5 9 -12 13 -14 8z"/>
<path d="M3875 2150 c-3 -5 -1 -10 4 -10 6 0 11 5 11 10 0 6 -2 10 -4 10 -3 0
-8 -4 -11 -10z"/>
<path d="M4716 2124 c-9 -8 -16 -22 -16 -30 0 -8 -7 -17 -15 -20 -8 -4 -15
-12 -15 -19 0 -7 -12 -24 -27 -39 l-27 -27 28 11 c33 12 39 13 32 1 -7 -11 22
-23 35 -15 5 3 9 13 9 22 0 13 2 14 13 3 10 -10 8 -14 -6 -22 -25 -14 -58 -51
-51 -58 3 -3 9 1 14 9 5 8 12 11 16 7 4 -4 3 -12 -3 -18 -12 -12 5 -69 21 -69
5 0 -1 -10 -14 -22 l-24 -22 25 -6 c17 -5 26 -1 31 11 7 19 4 52 -8 71 -4 6 1
17 10 24 11 8 13 14 7 19 -7 4 -8 13 -2 23 13 26 23 90 11 72 -8 -13 -10 -12
-10 3 0 9 10 27 22 39 17 17 18 20 4 15 -15 -6 -17 -3 -13 12 4 15 1 18 -12
13 -14 -5 -14 -4 -2 11 12 15 11 17 -2 17 -9 0 -23 -7 -31 -16z"/>
<path d="M4530 2095 c-10 -12 -10 -15 4 -15 9 0 16 7 16 15 0 8 -2 15 -4 15
-2 0 -9 -7 -16 -15z"/>
<path d="M4890 2065 c0 -23 -5 -46 -11 -52 -23 -23 20 -21 47 2 15 13 31 22
36 19 4 -3 8 -1 8 5 0 5 -4 13 -10 16 -5 3 -10 2 -10 -3 0 -11 -30 -25 -38
-17 -3 2 1 11 8 20 7 9 10 18 6 22 -3 3 -6 0 -6 -8 -1 -8 -7 -3 -15 11 -14 25
-14 25 -15 -15z"/>
<path d="M4330 2055 c-5 -14 -7 -32 -3 -42 4 -11 3 -14 -6 -9 -10 6 -10 4 0
-12 14 -23 29 -20 29 6 0 12 3 13 8 5 17 -26 47 24 36 59 -5 18 -9 17 -35 -14
-15 -18 -28 -28 -29 -22 0 6 7 17 15 24 17 14 20 30 5 30 -6 0 -15 -11 -20
-25z"/>
<path d="M4635 2060 c-4 -12 -5 -24 -2 -27 3 -2 8 5 12 17 4 12 5 24 2 27 -3
2 -8 -5 -12 -17z"/>
<path d="M4300 2049 c0 -5 5 -7 10 -4 6 3 10 8 10 11 0 2 -4 4 -10 4 -5 0 -10
-5 -10 -11z"/>
<path d="M4806 2033 c10 -41 26 -65 21 -30 -2 15 0 27 4 27 5 0 9 7 9 15 0 8
-9 15 -20 15 -17 0 -19 -4 -14 -27z"/>
<path d="M3816 1983 c-9 -57 -8 -99 3 -87 5 5 19 32 30 61 18 45 18 52 5 57
-27 10 -31 7 -38 -31z"/>
<path d="M4550 1979 c0 -5 5 -7 10 -4 6 3 10 8 10 11 0 2 -4 4 -10 4 -5 0 -10
-5 -10 -11z"/>
<path d="M4937 1942 c-3 -16 -3 -39 0 -51 3 -11 1 -21 -5 -21 -5 0 -13 -12
-17 -27 -3 -15 -12 -31 -18 -35 -9 -6 -9 -8 1 -8 7 0 16 10 21 23 5 13 15 28
23 34 9 8 13 29 12 58 -2 55 -9 66 -17 27z"/>
<path d="M4911 1944 c0 -11 3 -14 6 -6 3 7 2 16 -1 19 -3 4 -6 -2 -5 -13z"/>
<path d="M4806 1925 c-3 -9 0 -15 9 -15 16 0 20 16 6 24 -5 3 -11 -1 -15 -9z"/>
<path d="M4870 1880 c-18 -13 -28 -16 -37 -8 -9 7 -13 7 -13 0 0 -6 5 -14 10
-17 7 -4 7 -13 0 -26 -16 -28 -4 -40 25 -27 27 12 31 23 15 33 -15 10 -12 28
4 22 8 -3 17 1 20 9 3 8 12 14 21 14 8 0 15 5 15 10 0 16 -33 11 -60 -10z"/>
<path d="M3406 1860 c-19 -6 -19 -7 -1 -14 10 -3 22 -3 28 3 12 12 -4 20 -27
11z"/>
<path d="M4764 1835 c-6 -24 27 -111 38 -100 3 3 5 -1 5 -9 0 -8 -6 -12 -14
-9 -7 3 -13 -1 -13 -9 0 -14 52 -22 80 -11 11 4 9 8 -10 15 -14 6 -20 12 -13
15 10 3 10 7 0 17 -6 8 -17 12 -23 9 -7 -2 -15 0 -19 6 -3 6 1 14 10 17 12 5
13 9 4 20 -6 8 -9 23 -6 34 7 26 -12 15 -23 -14 -7 -16 -9 -17 -9 -4 -1 9 4
20 9 23 13 8 13 25 0 25 -5 0 -12 -11 -16 -25z"/>
<path d="M5004 1825 c3 -9 0 -15 -10 -15 -8 0 -12 -4 -9 -10 3 -6 -1 -7 -9 -4
-9 3 -16 13 -16 22 0 21 -13 6 -15 -17 -1 -11 4 -17 11 -14 6 2 15 -8 18 -23
l7 -27 20 32 c21 35 25 71 8 71 -6 0 -9 -7 -5 -15z"/>
<path d="M4853 1783 c-15 -5 -18 -33 -4 -33 5 0 11 9 14 20 3 11 4 20 4 19 -1
0 -8 -3 -14 -6z"/>
<path d="M4866 1751 c-4 -7 -5 -15 -2 -18 9 -9 19 4 14 18 -4 11 -6 11 -12 0z"/>
<path d="M5010 1741 c0 -12 6 -21 16 -21 9 0 14 7 12 17 -5 25 -28 28 -28 4z"/>
<path d="M1130 1554 c0 -11 5 -14 16 -10 9 3 21 6 27 6 16 0 -14 20 -30 20 -7
0 -13 -7 -13 -16z"/>
<path d="M1309 1568 c-5 -19 -6 -38 -1 -38 4 1 23 9 42 20 l35 19 -37 1 c-21
0 -38 -1 -39 -2z"/>
<path d="M1295 1510 c3 -5 8 -10 11 -10 2 0 4 5 4 10 0 6 -5 10 -11 10 -5 0
-7 -4 -4 -10z"/>
<path d="M1755 1430 c-3 -5 1 -10 10 -10 9 0 13 5 10 10 -3 6 -8 10 -10 10 -2
0 -7 -4 -10 -10z"/>
<path d="M3499 1364 c-13 -15 -12 -16 10 -9 13 4 40 3 60 -3 68 -20 126 -28
151 -22 18 4 0 11 -65 22 -49 9 -102 19 -116 23 -18 5 -29 2 -40 -11z"/>
<path d="M1706 1344 c-4 -9 -9 -14 -13 -11 -3 4 -13 2 -20 -5 -11 -9 -16 -9
-23 2 -5 8 -12 11 -17 7 -11 -12 19 -28 42 -22 11 2 28 5 38 5 9 0 17 6 17 14
0 22 -17 28 -24 10z"/>
<path d="M1366 1323 c-6 -14 -5 -15 5 -6 7 7 10 15 7 18 -3 3 -9 -2 -12 -12z"/>
<path d="M1280 1319 c0 -5 5 -7 10 -4 6 3 10 8 10 11 0 2 -4 4 -10 4 -5 0 -10
-5 -10 -11z"/>
<path d="M1126 1295 c-3 -8 -1 -15 3 -15 5 0 11 7 15 15 3 8 1 15 -3 15 -5 0
-11 -7 -15 -15z"/>
<path d="M3130 1290 c0 -11 2 -20 4 -20 2 0 6 9 9 20 3 11 1 20 -4 20 -5 0 -9
-9 -9 -20z"/>
<path d="M1280 1284 c0 -8 5 -12 10 -9 6 4 8 11 5 16 -9 14 -15 11 -15 -7z"/>
<path d="M3457 1273 c-4 -3 -7 -13 -7 -22 1 -13 3 -13 11 2 11 19 8 33 -4 20z"/>
<path d="M1255 1250 c-3 -5 -1 -10 4 -10 6 0 11 5 11 10 0 6 -2 10 -4 10 -3 0
-8 -4 -11 -10z"/>
<path d="M1420 1230 c-17 -42 -8 -54 11 -14 9 19 13 36 9 39 -4 3 -13 -8 -20
-25z"/>
<path d="M3121 1248 c0 -9 -4 -25 -7 -35 -5 -17 -5 -17 6 0 6 10 9 25 7 35 -4
15 -5 15 -6 0z"/>
<path d="M2196 1227 c3 -10 9 -15 12 -12 3 3 0 11 -7 18 -10 9 -11 8 -5 -6z"/>
<path d="M3525 1229 c-4 -6 -5 -12 -2 -15 2 -3 7 2 10 11 7 17 1 20 -8 4z"/>
<path d="M3545 1209 c-4 -6 -5 -12 -2 -15 2 -3 7 2 10 11 7 17 1 20 -8 4z"/>
<path d="M1520 1202 c0 -5 10 -17 21 -28 22 -19 22 -19 10 3 -12 24 -31 39
-31 25z"/>
<path d="M3569 1158 c3 -34 5 -39 12 -23 6 17 8 16 9 -10 2 -16 2 -34 1 -38
-1 -5 3 -6 9 -2 8 5 13 -14 9 -41 0 -4 4 -10 9 -13 6 -3 12 -28 15 -56 7 -59
25 -129 26 -100 3 76 -64 325 -88 325 -4 0 -5 -19 -2 -42z"/>
<path d="M1580 1112 c13 -23 48 -73 78 -110 29 -37 57 -74 62 -82 5 -8 11 -12
14 -9 5 5 -14 33 -117 170 -61 80 -66 84 -37 31z"/>
<path d="M3339 1113 l-24 -28 28 24 c15 14 27 26 27 28 0 8 -8 1 -31 -24z"/>
<path d="M2190 1115 c-7 -9 -11 -18 -8 -20 3 -3 11 1 18 10 7 9 11 18 8 20 -3
3 -11 -1 -18 -10z"/>
<path d="M2286 1114 c-8 -22 -8 -24 8 -24 21 0 28 16 12 29 -11 9 -15 8 -20
-5z"/>
<path d="M2326 1083 c-6 -14 -5 -15 5 -6 7 7 10 15 7 18 -3 3 -9 -2 -12 -12z"/>
<path d="M2350 1070 c0 -5 7 -10 16 -10 8 0 12 -4 9 -10 -3 -5 -1 -10 4 -10 6
0 11 -6 11 -14 0 -7 8 -16 18 -20 9 -3 24 -9 32 -12 8 -4 -5 14 -30 40 -44 46
-60 55 -60 36z"/>
<path d="M3240 1048 c-11 -18 -20 -36 -20 -40 0 -17 11 -6 30 32 25 48 18 53
-10 8z"/>
<path d="M1423 1056 c3 -6 9 -10 15 -9 6 2 9 -4 5 -12 -4 -12 -9 -13 -19 -4
-13 11 -34 5 -34 -10 0 -7 58 -7 65 1 2 1 5 12 7 23 2 15 -3 20 -20 21 -13 1
-21 -3 -19 -10z"/>
<path d="M3131 1023 c0 -36 3 -43 9 -28 12 28 12 75 0 75 -5 0 -10 -21 -9 -47z"/>
<path d="M3160 1063 c0 -4 5 -15 10 -23 8 -13 10 -13 10 2 0 9 -4 20 -10 23
-5 3 -10 3 -10 -2z"/>
<path d="M1680 1053 c0 -6 8 -17 18 -24 16 -13 16 -13 2 6 -8 11 -16 22 -17
24 -2 2 -3 0 -3 -6z"/>
<path d="M1860 1011 c0 -5 7 -14 15 -21 8 -7 15 -18 15 -24 1 -16 40 -63 40
-48 0 12 -59 102 -67 102 -2 0 -3 -4 -3 -9z"/>
<path d="M3176 993 c4 -16 7 -45 6 -65 -2 -20 2 -39 7 -42 14 -9 13 -215 -3
-293 -12 -63 -12 -73 0 -73 20 0 38 49 24 65 -7 8 -9 33 -5 62 3 26 7 114 9
195 3 129 1 146 -11 130 -12 -15 -13 -14 -8 16 5 26 3 32 -10 32 -14 0 -16 -5
-9 -27z"/>
<path d="M635 1001 c-3 -5 -1 -12 5 -16 5 -3 10 1 10 9 0 18 -6 21 -15 7z"/>
<path d="M711 1003 c0 -4 4 -17 9 -28 8 -19 9 -19 9 2 1 12 -3 25 -9 28 -5 3
-10 3 -9 -2z"/>
<path d="M1473 975 c-9 -9 -9 -16 -2 -20 6 -4 8 -14 5 -22 -3 -8 -2 -12 2 -9
4 2 25 -4 46 -15 22 -10 43 -19 48 -19 5 0 18 -9 30 -20 27 -25 41 -26 36 -2
-2 9 -10 17 -18 17 -8 0 -24 9 -36 20 -11 12 -39 27 -61 34 -32 11 -39 17 -36
32 6 22 3 23 -14 4z"/>
<path d="M2799 979 c-4 -36 -2 -53 9 -57 7 -2 12 5 12 18 0 12 4 19 9 16 5 -4
8 1 7 11 -3 17 -35 28 -37 12z"/>
<path d="M2465 960 c3 -5 11 -10 16 -10 6 0 7 5 4 10 -3 6 -11 10 -16 10 -6 0
-7 -4 -4 -10z"/>
<path d="M1400 953 c0 -5 7 -17 15 -27 8 -11 15 -30 15 -43 0 -16 4 -21 15
-17 8 4 12 11 8 17 -4 6 -1 7 6 3 7 -5 10 -10 7 -13 -3 -3 -1 -10 5 -17 22
-26 59 -88 59 -98 0 -7 5 -7 14 1 11 10 16 8 20 -7 8 -24 64 -78 72 -69 12 12
-169 233 -213 263 -13 8 -23 11 -23 7z"/>
<path d="M2503 938 c-1 -12 5 -18 18 -18 12 0 19 7 19 18 0 10 -7 18 -18 18
-10 0 -19 -8 -19 -18z"/>
<path d="M940 934 c0 -12 7 -24 15 -28 19 -7 19 5 0 30 -14 19 -14 19 -15 -2z"/>
<path d="M2532 891 c13 -22 28 -28 28 -11 0 5 -9 14 -20 20 -19 10 -20 10 -8
-9z"/>
<path d="M2781 894 c0 -11 3 -14 6 -6 3 7 2 16 -1 19 -3 4 -6 -2 -5 -13z"/>
<path d="M1740 898 c0 -4 14 -27 30 -51 17 -25 30 -50 30 -56 0 -6 5 -11 10
-11 14 0 13 5 -15 47 -35 54 -54 79 -55 71z"/>
<path d="M1400 853 c21 -100 39 -136 97 -190 43 -41 63 -52 63 -35 -1 14 -27
42 -41 42 -8 0 -22 17 -31 38 -10 20 -27 52 -38 70 -11 17 -18 32 -15 32 3 0
-5 18 -16 40 -12 22 -22 40 -24 40 -1 0 1 -17 5 -37z"/>
<path d="M3002 881 l-34 -6 28 -25 27 -25 -6 23 c-8 32 13 23 38 -16 11 -17
26 -31 34 -32 11 0 11 3 0 16 -7 9 -14 23 -15 31 -3 16 -24 44 -33 42 -3 -1
-21 -4 -39 -8z"/>
<path d="M2721 868 c0 -9 -8 -18 -17 -20 -12 -2 -6 -11 22 -34 39 -31 39 -31
40 -7 1 16 -3 23 -16 23 -13 0 -20 9 -23 28 -2 15 -5 19 -6 10z"/>
<path d="M2825 870 c-3 -5 -1 -10 4 -10 6 0 11 5 11 10 0 6 -2 10 -4 10 -3 0
-8 -4 -11 -10z"/>
<path d="M784 849 c-19 -22 -19 -22 4 -10 12 6 22 16 22 21 0 15 -5 12 -26
-11z"/>
<path d="M1446 851 c-4 -7 -6 -13 -5 -14 2 -2 13 -9 24 -17 18 -13 19 -13 9 0
-6 8 -13 22 -16 30 -3 11 -6 11 -12 1z"/>
<path d="M2890 850 c19 -13 30 -13 30 0 0 6 -10 10 -22 10 -19 0 -20 -2 -8
-10z"/>
<path d="M2580 836 c0 -7 9 -21 20 -31 16 -14 20 -15 20 -4 0 8 -9 22 -20 32
-15 12 -20 13 -20 3z"/>
<path d="M3666 793 c3 -36 0 -81 -7 -105 -7 -24 -12 -51 -11 -60 0 -10 -3 -20
-8 -23 -5 -3 -6 -20 -3 -39 6 -38 -16 -87 -49 -110 -14 -10 -17 -16 -9 -16 8
0 23 7 33 17 17 15 18 15 18 -5 0 -12 4 -22 9 -22 9 0 22 86 23 157 0 26 6 44
14 47 19 7 18 106 -1 171 l-15 50 6 -62z"/>
<path d="M1856 820 c3 -14 10 -29 15 -34 14 -16 10 6 -7 34 l-15 25 7 -25z"/>
<path d="M1916 827 c3 -10 9 -15 12 -12 3 3 0 11 -7 18 -10 9 -11 8 -5 -6z"/>
<path d="M1958 811 c3 -9 1 -12 -6 -7 -7 4 -12 1 -12 -8 0 -9 1 -16 3 -16 1 1
25 7 52 15 33 9 41 14 25 14 -18 1 -21 4 -11 10 8 6 1 8 -22 7 -25 -1 -33 -5
-29 -15z"/>
<path d="M2920 820 c0 -5 5 -10 11 -10 5 0 7 5 4 10 -3 6 -8 10 -11 10 -2 0
-4 -4 -4 -10z"/>
<path d="M2980 814 c0 -13 18 -39 24 -34 2 3 -2 14 -10 24 -8 11 -14 16 -14
10z"/>
<path d="M3020 800 c0 -5 5 -12 10 -15 6 -3 10 0 10 7 0 10 3 9 11 -2 8 -12
10 -12 7 -1 -4 15 -38 25 -38 11z"/>
<path d="M2950 781 c0 -5 6 -12 13 -14 9 -4 9 -6 0 -6 -7 -1 8 -22 33 -48 43
-46 114 -170 114 -199 0 -8 5 -14 11 -14 18 0 1 65 -33 128 -34 65 -63 99 -90
108 -10 3 -18 9 -18 14 0 5 8 7 18 3 21 -8 16 -2 -20 20 -16 10 -28 13 -28 8z"/>
<path d="M2620 769 c0 -21 59 -99 76 -99 23 0 16 15 -19 46 -19 16 -39 38 -45
49 -8 15 -11 16 -12 4z"/>
<path d="M3048 763 c7 -3 16 -2 19 1 4 3 -2 6 -13 5 -11 0 -14 -3 -6 -6z"/>
<path d="M1405 663 c6 -148 16 -200 61 -299 32 -70 45 -80 86 -64 18 8 40 20
49 27 9 8 29 15 45 16 16 1 31 5 34 8 16 18 98 48 118 43 13 -4 22 -2 22 5 0
13 -45 25 -65 17 -9 -3 -14 -2 -11 3 3 5 -5 16 -19 25 -16 10 -25 12 -25 5 0
-6 -7 -8 -16 -5 -14 5 -16 1 -11 -29 4 -25 2 -35 -8 -35 -7 0 -15 7 -19 15 -3
8 -10 15 -17 15 -6 0 -9 -6 -6 -14 7 -18 -3 -28 -17 -17 -7 6 -25 2 -48 -9
-59 -28 -35 3 40 53 37 25 75 49 84 53 12 7 -1 9 -40 9 -31 0 -63 -6 -70 -12
-7 -7 -19 -16 -25 -20 -7 -5 -18 -19 -24 -33 l-12 -25 0 28 c-1 16 5 30 14 33
8 4 15 12 15 20 0 7 6 17 13 21 8 4 24 23 37 41 13 17 29 32 35 32 6 0 20 7
31 15 18 14 17 14 -14 15 -18 0 -31 -4 -28 -8 3 -5 -13 -19 -34 -31 -29 -16
-40 -19 -40 -9 -1 7 -7 2 -14 -11 -9 -17 -15 -20 -18 -10 -3 8 0 22 6 31 8 14
4 24 -21 50 -17 18 -45 60 -62 93 l-30 60 4 -102z m62 -95 c-3 -8 -6 -5 -6 6
-1 11 2 17 5 13 3 -3 4 -12 1 -19z m24 -115 c-12 -20 -14 -14 -5 12 4 9 9 14
11 11 3 -2 0 -13 -6 -23z m53 -142 c-2 -3 -12 3 -22 13 -16 17 -16 18 5 5 12
-7 20 -15 17 -18z"/>
<path d="M1740 750 c0 -21 16 -44 23 -33 4 6 0 19 -8 29 -11 15 -14 16 -15 4z"/>
<path d="M780 695 c0 -8 5 -15 10 -15 6 0 10 7 10 15 0 8 -4 15 -10 15 -5 0
-10 -7 -10 -15z"/>
<path d="M1740 620 c0 -5 5 -10 10 -10 6 0 10 5 10 10 0 6 -4 10 -10 10 -5 0
-10 -4 -10 -10z"/>
<path d="M2495 551 c5 -10 154 -6 163 4 3 3 -34 5 -82 5 -52 0 -85 -4 -81 -9z"/>
<path d="M1720 500 c-12 -8 -11 -10 8 -10 12 0 22 5 22 10 0 13 -11 13 -30 0z"/>
<path d="M2087 470 c-12 -46 -8 -58 26 -69 46 -14 96 -18 96 -6 1 6 -5 10 -12
11 -34 3 -88 43 -99 74 -3 9 -7 6 -11 -10z"/>
<path d="M2848 468 c-16 -5 -28 -14 -28 -19 0 -5 -7 -9 -15 -9 -8 0 -15 -4
-15 -9 0 -6 9 -8 19 -6 25 5 61 -5 61 -16 0 -5 -21 -7 -47 -5 -27 2 -111 6
-188 9 -105 5 -122 4 -70 -3 240 -30 255 -33 245 -45 -7 -9 -22 -10 -53 -4
-69 13 -301 11 -320 -3 -14 -11 16 -13 160 -12 109 1 180 -2 184 -8 4 -6 25 3
49 21 26 19 55 31 74 31 41 0 76 10 76 22 0 5 -4 7 -9 4 -4 -3 -26 10 -49 29
-22 19 -42 35 -44 34 -1 0 -15 -5 -30 -11z"/>
<path d="M2226 410 c38 -21 53 -36 57 -57 3 -15 29 -54 57 -85 32 -36 49 -63
44 -70 -4 -7 -4 -10 1 -6 5 5 22 -3 39 -15 22 -17 38 -22 56 -17 20 6 22 9 9
14 -10 4 -25 6 -34 4 -26 -5 -43 27 -27 52 11 18 10 20 -12 20 -45 0 -36 16
10 19 24 1 63 10 87 21 41 18 42 19 12 19 -17 1 -36 -4 -42 -10 -13 -13 -133
-22 -133 -9 0 5 5 21 10 36 8 19 8 30 0 38 -7 7 -10 2 -10 -17 0 -15 -4 -27
-10 -27 -5 0 -13 0 -17 0 -5 0 -8 15 -8 33 0 28 -6 35 -50 59 -69 38 -105 36
-39 -2z"/>
<path d="M1852 413 c3 -12 1 -24 -6 -27 -6 -2 -3 -5 7 -5 10 -1 16 -5 12 -11
-3 -5 6 -17 20 -26 34 -22 32 -56 -6 -88 -35 -30 -71 -41 -96 -31 -13 4 -15 3
-8 -4 6 -6 33 -14 60 -17 44 -7 50 -5 70 20 23 28 79 42 105 26 11 -7 2 -10
-32 -10 -54 0 -65 -10 -37 -33 10 -9 19 -12 19 -7 0 6 10 8 23 5 16 -4 37 3
65 21 23 15 42 31 42 35 0 3 -15 12 -32 18 -78 29 -145 71 -177 113 -23 29
-32 36 -29 21z m93 -133 c3 -5 1 -10 -4 -10 -6 0 -11 5 -11 10 0 6 2 10 4 10
3 0 8 -4 11 -10z"/>
<path d="M2748 423 c7 -3 16 -2 19 1 4 3 -2 6 -13 5 -11 0 -14 -3 -6 -6z"/>
<path d="M1811 336 c-10 -12 -8 -13 8 -9 12 3 21 9 21 14 0 14 -16 11 -29 -5z"/>
<path d="M2377 323 c-4 -3 -7 -11 -7 -17 0 -6 5 -5 12 2 6 6 9 14 7 17 -3 3
-9 2 -12 -2z"/>
<path d="M3630 289 c0 -5 17 -17 37 -25 33 -14 40 -14 67 0 21 11 24 15 10 13
-12 -3 -32 2 -45 9 -29 16 -69 18 -69 3z"/>
<path d="M2630 225 c7 -8 10 -21 7 -29 -3 -8 1 -20 9 -27 18 -15 31 -4 16 13
-11 13 -12 18 -12 43 0 8 -7 15 -16 15 -13 0 -14 -3 -4 -15z"/>
<path d="M1465 204 c-10 -8 -26 -12 -35 -9 -33 11 -99 -97 -100 -162 l0 -33
64 0 64 0 -8 38 c-4 20 -11 53 -14 73 l-6 36 77 -4 78 -4 -37 21 c-20 11 -43
28 -50 39 -12 17 -16 17 -33 5z"/>
<path d="M1905 210 c-3 -5 1 -13 10 -16 22 -9 29 1 11 15 -10 8 -16 9 -21 1z"/>
<path d="M2553 172 c0 -12 5 -22 9 -22 11 0 10 12 -2 30 -7 12 -9 10 -7 -8z"/>
<path d="M3595 160 c-11 -18 28 -59 57 -60 15 0 30 5 33 10 3 6 21 11 38 11
18 1 -1 7 -43 14 -91 15 -90 14 -65 25 16 7 17 9 3 9 -9 1 -20 -3 -23 -9z"/>
<path d="M1603 133 c9 -2 23 -2 30 0 6 3 -1 5 -18 5 -16 0 -22 -2 -12 -5z"/>
<path d="M3320 115 c0 -23 -45 -65 -70 -65 -21 0 -22 1 -6 25 22 34 19 45 -4
16 -11 -13 -20 -30 -20 -38 0 -9 -6 -12 -18 -8 -11 3 -31 -1 -46 -8 -26 -14
-24 -15 43 -21 80 -8 135 0 153 21 14 17 20 65 6 57 -4 -3 -8 1 -8 9 0 8 -7
17 -15 21 -9 3 -15 0 -15 -9z m16 -42 c-11 -11 -19 6 -11 24 8 17 8 17 12 0 3
-10 2 -21 -1 -24z"/>
<path d="M708 103 c6 -2 18 -2 25 0 6 3 1 5 -13 5 -14 0 -19 -2 -12 -5z"/>
<path d="M3110 70 c-3 -19 -11 -36 -17 -36 -26 -3 -28 -5 -10 -15 27 -16 39 1
35 47 l-4 39 -4 -35z"/>
<path d="M1563 18 c-2 -5 8 -8 24 -8 15 0 39 -3 53 -6 24 -6 25 -6 5 9 -21 15
-73 18 -82 5z"/>
<path d="M1810 9 c0 -5 17 -9 37 -9 43 0 39 9 -6 15 -17 2 -31 -1 -31 -6z"/>
</g>
</svg>
