<?xml version="1.0" standalone="no"?>
<!DOCTYPE svg PUBLIC "-//W3C//DTD SVG 20010904//EN"
 "http://www.w3.org/TR/2001/REC-SVG-20010904/DTD/svg10.dtd">
<svg version="1.0" xmlns="http://www.w3.org/2000/svg"
 width="218.000000pt" height="308.000000pt" viewBox="0 0 218.000000 308.000000"
 preserveAspectRatio="xMidYMid meet">

<g transform="translate(0.000000,308.000000) scale(0.100000,-0.100000)"
fill="#000000" stroke="none">
<path d="M1628 3060 c90 -55 106 -191 31 -255 -24 -20 -41 -25 -84 -25 -43 0
-60 5 -84 25 -35 30 -56 85 -47 126 l6 29 -163 0 c-181 0 -216 -9 -250 -67
-12 -22 -95 -398 -97 -440 0 -2 24 12 53 31 200 128 390 182 606 173 147 -6
254 -33 383 -98 44 -22 84 -37 88 -32 4 4 22 81 40 170 52 258 49 263 -187
263 l-158 0 -22 39 c-23 39 -89 81 -129 81 -14 0 -11 -5 14 -20z"/>
<path d="M1380 2560 c-193 -23 -421 -118 -632 -262 -49 -33 -88 -61 -88 -63 0
-2 43 10 97 26 86 26 143 36 143 25 0 -2 -27 -131 -61 -287 -33 -156 -64 -304
-69 -329 -5 -25 -27 -134 -50 -243 -41 -200 -45 -233 -34 -261 13 -35 47 -41
245 -46 l196 -5 -34 -89 c-61 -159 -101 -276 -93 -271 19 12 113 181 208 371
142 287 212 496 212 628 0 61 -9 72 -66 84 l-39 8 85 43 c206 105 399 260 448
362 28 57 30 142 4 181 -42 64 -125 103 -262 124 -103 15 -112 15 -210 4z
m136 -241 c37 -22 92 -123 96 -175 3 -54 -45 -107 -137 -150 l-50 -24 -16 39
c-20 45 -62 81 -96 81 -83 0 -211 -131 -289 -295 -45 -94 -104 -260 -104 -291
0 -11 -5 -26 -11 -34 -8 -11 -9 17 -5 100 6 133 39 276 86 375 77 161 263 350
378 385 51 15 113 11 148 -11z"/>
<path d="M2076 2335 c-32 -86 -65 -132 -146 -208 -80 -76 -206 -150 -297 -178
-38 -11 -43 -16 -49 -48 -33 -193 -117 -425 -239 -658 l-64 -123 205 0 c220 0
236 3 283 53 26 29 37 70 105 404 105 513 101 497 144 555 66 88 83 131 80
196 l-3 57 -19 -50z"/>
<path d="M175 631 c-11 -5 -27 -17 -37 -27 -17 -20 -87 -336 -80 -367 2 -10
15 -22 28 -28 15 -5 406 -9 980 -9 1031 0 1013 -1 1032 52 5 13 24 97 42 187
l34 164 -23 18 c-22 18 -61 19 -990 18 -531 0 -975 -4 -986 -8z m467 -97 c13
-8 9 -44 -4 -48 -49 -16 -68 -16 -68 -1 0 13 -18 15 -127 13 -122 -3 -128 -4
-131 -25 -3 -21 0 -21 147 -25 177 -4 190 -9 172 -74 -16 -58 -24 -66 -77 -75
-59 -10 -252 -10 -314 -1 -40 6 -45 10 -48 35 -2 15 1 27 6 27 5 0 24 3 41 6
25 5 31 3 31 -10 0 -15 15 -16 137 -14 l137 3 7 28 7 27 -147 0 c-173 0 -188
5 -178 65 9 56 28 69 105 76 70 6 291 1 304 -7z m692 -4 c9 -9 12 -25 9 -42
-4 -23 -11 -28 -33 -28 -16 0 -35 -3 -44 -6 -12 -5 -16 0 -16 20 l0 26 -119 0
-119 0 -16 -71 c-9 -39 -16 -75 -16 -80 0 -5 53 -9 119 -9 l119 0 5 29 c6 28
8 29 49 24 53 -7 52 -6 44 -37 -15 -59 -66 -71 -276 -64 -169 5 -168 4 -141
122 30 136 28 135 268 132 121 -1 155 -4 167 -16z m666 0 c23 -12 24 -21 9
-72 -16 -59 -43 -68 -208 -68 l-141 0 -6 -27 c-13 -65 -22 -74 -62 -71 -20 2
-36 8 -36 13 1 6 12 60 25 122 23 112 23 112 54 115 70 7 347 -2 365 -12z"/>
<path d="M1678 471 l-4 -30 85 -3 c47 -2 103 -2 124 0 34 3 37 6 37 33 l0 29
-119 0 -119 0 -4 -29z"/>
<path d="M21 112 c-5 -10 -11 -36 -13 -58 l-3 -39 55 -3 c43 -3 57 1 67 14 17
23 16 34 -2 34 -8 0 -15 -7 -15 -15 0 -11 -11 -15 -41 -15 -38 0 -41 2 -35 23
3 12 6 30 6 40 0 13 9 17 40 17 22 0 40 -4 40 -10 0 -5 7 -10 15 -10 8 0 15 9
15 20 0 18 -7 20 -60 20 -47 0 -61 -4 -69 -18z"/>
<path d="M217 123 c-3 -5 -8 -24 -12 -43 -3 -19 -9 -43 -11 -52 -3 -11 0 -18
9 -18 8 0 18 11 21 25 6 22 12 25 52 25 44 0 46 -1 40 -25 -5 -18 -2 -25 8
-25 13 0 36 67 36 104 0 23 -21 20 -27 -4 -4 -16 -14 -20 -49 -20 -37 0 -44 3
-44 20 0 20 -14 27 -23 13z"/>
<path d="M424 103 c-3 -16 -10 -41 -15 -57 -10 -33 -7 -41 14 -33 8 3 17 23
21 45 3 22 9 47 12 56 4 11 1 16 -10 16 -9 0 -18 -12 -22 -27z"/>
<path d="M511 80 c-14 -66 -14 -70 4 -70 8 0 15 9 15 19 0 32 20 35 49 7 15
-14 36 -26 46 -26 17 0 16 2 -5 25 -23 24 -23 25 -3 25 22 0 33 18 33 51 0 17
-8 19 -64 19 l-64 0 -11 -50z m109 15 c0 -11 -11 -15 -40 -15 -29 0 -40 4 -40
15 0 11 11 15 40 15 29 0 40 -4 40 -15z"/>
<path d="M710 104 c-6 -14 -11 -40 -13 -57 l-2 -32 66 -3 c77 -3 86 3 95 72
l7 46 -72 0 c-68 0 -72 -1 -81 -26z m120 -3 c0 -5 -3 -23 -6 -40 -6 -30 -9
-31 -55 -31 -49 0 -49 0 -43 28 11 51 12 52 59 52 25 0 45 -4 45 -9z"/>
<path d="M921 93 c-19 -79 -19 -83 -5 -83 7 0 16 11 20 25 6 22 11 25 55 25
44 0 51 3 59 26 15 37 6 44 -60 44 l-59 0 -10 -37z m107 5 c-3 -7 -21 -14 -41
-16 -28 -2 -37 1 -37 12 0 12 11 16 41 16 28 0 39 -4 37 -12z"/>
<path d="M1107 123 c-2 -5 -7 -25 -11 -46 -4 -21 -10 -45 -13 -53 -3 -8 1 -14
11 -14 8 0 18 11 22 25 3 14 10 25 16 25 5 0 19 -11 32 -25 13 -14 31 -25 41
-25 17 0 17 1 2 18 -21 23 -21 32 -2 32 17 0 39 46 29 61 -6 11 -121 12 -127
2z m101 -25 c-3 -7 -23 -14 -46 -16 -34 -3 -41 0 -36 12 8 20 88 23 82 4z"/>
<path d="M1301 74 c-42 -54 -50 -84 -13 -51 24 21 88 23 96 2 3 -8 13 -15 22
-15 11 0 14 5 9 18 -4 9 -14 36 -22 60 -9 27 -21 42 -32 42 -9 0 -36 -25 -60
-56z m63 10 c9 -23 8 -24 -19 -24 -23 0 -24 2 -13 20 15 24 24 25 32 4z"/>
<path d="M1480 104 c-6 -14 -11 -40 -13 -57 l-2 -32 59 -3 c41 -2 62 1 67 10
13 20 10 38 -6 38 -8 0 -15 -7 -15 -15 0 -11 -11 -15 -40 -15 -39 0 -40 1 -34
28 11 50 13 52 54 52 25 0 39 -4 35 -10 -3 -5 1 -10 9 -10 9 0 16 9 16 20 0
18 -7 20 -60 20 -56 0 -61 -2 -70 -26z"/>
<path d="M1650 120 c0 -5 12 -10 26 -10 25 0 26 -2 20 -36 -4 -19 -10 -42 -13
-50 -3 -8 1 -14 10 -14 16 0 20 10 32 68 6 27 11 32 36 32 16 0 29 5 29 10 0
6 -30 10 -70 10 -40 0 -70 -4 -70 -10z"/>
<path d="M1827 116 c-3 -7 -9 -35 -13 -61 -5 -37 -4 -47 7 -43 10 3 30 63 39
116 1 9 -29 -1 -33 -12z"/>
<path d="M1914 105 c-3 -13 -7 -39 -7 -57 l-2 -33 55 -3 c43 -3 57 1 67 14 7
10 13 21 13 26 0 14 -28 9 -34 -7 -3 -10 -19 -15 -42 -15 -36 0 -36 1 -30 31
3 17 6 35 6 40 0 14 78 11 82 -3 5 -15 28 -1 28 18 0 11 -15 14 -65 14 -60 0
-65 -2 -71 -25z"/>
</g>
</svg>
